STARTFONT 2.3
FONT -FontForge-Syncopate-Book-R-Normal--16-160-72-72-P-120-ISO10646-1
SIZE 16 72 72  2
FONTBOUNDINGBOX 29 19 -3 -4
COMMENT "Generated by fontforge, http://fontforge.sourceforge.net"
COMMENT "Copyright (c) 2010 by Brian J. Bonislawsky DBA Astigmatic (AOETI). All rights reserved. Available under the Apache 2.0 licence.http://www.apache.org/licenses/LICENSE-2.0.html"
STARTPROPERTIES 40
FOUNDRY "FontForge"
FAMILY_NAME "Syncopate"
WEIGHT_NAME "Book"
SLANT "R"
SETWIDTH_NAME "Normal"
ADD_STYLE_NAME ""
PIXEL_SIZE 16
POINT_SIZE 160
RESOLUTION_X 72
RESOLUTION_Y 72
SPACING "P"
AVERAGE_WIDTH 120
CHARSET_REGISTRY "ISO10646"
CHARSET_ENCODING "1"
FONTNAME_REGISTRY ""
CHARSET_COLLECTIONS "ISO8859-2 ISO8859-9 ISO8859-4 ISO10646-1"
BITS_PER_PIXEL 2
FONT_NAME "Syncopate-Regular"
FACE_NAME "Syncopate Regular"
COPYRIGHT "Copyright (c) 2010 by Brian J. Bonislawsky DBA Astigmatic (AOETI). All rights reserved. Available under the Apache 2.0 licence.http://www.apache.org/licenses/LICENSE-2.0.html"
FONT_VERSION "001.001"
FONT_ASCENT 13
FONT_DESCENT 3
UNDERLINE_POSITION -2
UNDERLINE_THICKNESS 1
X_HEIGHT 10
CAP_HEIGHT 10
RAW_ASCENT 799
RAW_DESCENT 200
NORM_SPACE 6
RELATIVE_WEIGHT 40
RELATIVE_SETWIDTH 70
SUPERSCRIPT_X 0
SUPERSCRIPT_Y 4
SUPERSCRIPT_SIZE 3
SUBSCRIPT_X 0
SUBSCRIPT_Y 4
SUBSCRIPT_SIZE 3
AVG_LOWERCASE_WIDTH 138
AVG_UPPERCASE_WIDTH 131
ENDPROPERTIES
CHARS 370
STARTCHAR space
ENCODING 32
SWIDTH 375 0
DWIDTH 6 0
BBX 1 1 0 0
BITMAP
00
ENDCHAR
STARTCHAR exclam
ENCODING 33
SWIDTH 274 0
DWIDTH 4 0
BBX 2 11 1 0
BITMAP
60
60
60
60
60
60
60
20
00
60
60
ENDCHAR
STARTCHAR quotedbl
ENCODING 34
SWIDTH 290 0
DWIDTH 5 0
BBX 4 3 0 8
BITMAP
63
63
63
ENDCHAR
STARTCHAR numbersign
ENCODING 35
SWIDTH 701 0
DWIDTH 11 0
BBX 11 11 0 0
BITMAP
008080
008080
018080
1FFFF4
024240
020200
020200
7FFFE0
050500
080800
080800
ENDCHAR
STARTCHAR dollar
ENCODING 36
SWIDTH 767 0
DWIDTH 12 0
BBX 10 13 1 -1
BITMAP
005000
1BFE40
745180
905000
A05000
2E9000
01B900
0066D0
005070
005030
9451A0
1BFE40
005000
ENDCHAR
STARTCHAR percent
ENCODING 37
SWIDTH 992 0
DWIDTH 16 0
BBX 14 11 1 0
BITMAP
2F800800
D0A02400
80309000
D0A18000
2F860000
00090000
00247E40
006181C0
01824090
030181C0
09007E40
ENDCHAR
STARTCHAR ampersand
ENCODING 38
SWIDTH 926 0
DWIDTH 15 0
BBX 13 11 1 0
BITMAP
02FE0000
0E028000
0C018000
08060000
06640000
0AD00000
24240300
900A0600
90019900
7501B800
1BFE4640
ENDCHAR
STARTCHAR quotesingle
ENCODING 39
SWIDTH 140 0
DWIDTH 2 0
BBX 2 3 0 8
BITMAP
60
60
60
ENDCHAR
STARTCHAR parenleft
ENCODING 40
SWIDTH 420 0
DWIDTH 7 0
BBX 4 13 1 -1
BITMAP
02
0D
28
30
60
90
90
90
60
30
28
0D
02
ENDCHAR
STARTCHAR parenright
ENCODING 41
SWIDTH 420 0
DWIDTH 7 0
BBX 4 13 2 -1
BITMAP
80
A0
24
18
0D
09
09
09
0D
18
24
A0
80
ENDCHAR
STARTCHAR asterisk
ENCODING 42
SWIDTH 503 0
DWIDTH 8 0
BBX 6 7 1 4
BITMAP
0500
8520
6A90
0F00
6A90
8520
0500
ENDCHAR
STARTCHAR plus
ENCODING 43
SWIDTH 634 0
DWIDTH 10 0
BBX 8 7 1 2
BITMAP
0180
0180
0180
BFFE
0180
0180
0180
ENDCHAR
STARTCHAR comma
ENCODING 44
SWIDTH 185 0
DWIDTH 3 0
BBX 2 3 0 -1
BITMAP
30
60
A0
ENDCHAR
STARTCHAR hyphen
ENCODING 45
SWIDTH 540 0
DWIDTH 9 0
BBX 7 1 1 5
BITMAP
BFF4
ENDCHAR
STARTCHAR period
ENCODING 46
SWIDTH 185 0
DWIDTH 3 0
BBX 2 2 0 0
BITMAP
70
70
ENDCHAR
STARTCHAR slash
ENCODING 47
SWIDTH 500 0
DWIDTH 8 0
BBX 6 11 1 0
BITMAP
0020
0090
00C0
0240
0300
0500
0C00
1800
3000
6000
8000
ENDCHAR
STARTCHAR zero
ENCODING 48
SWIDTH 833 0
DWIDTH 13 0
BBX 12 11 1 0
BITMAP
02FE40
1D01E0
300024
90000C
C00009
C00009
C00009
90000C
300024
1D01E0
02FE40
ENDCHAR
STARTCHAR one
ENCODING 49
SWIDTH 339 0
DWIDTH 5 0
BBX 4 11 0 0
BITMAP
6E
9A
06
06
06
06
06
06
06
06
06
ENDCHAR
STARTCHAR two
ENCODING 50
SWIDTH 728 0
DWIDTH 12 0
BBX 11 11 0 0
BITMAP
1BFE40
6401A0
000024
000024
000034
000090
000240
001900
019000
1A0000
7FFFF8
ENDCHAR
STARTCHAR three
ENCODING 51
SWIDTH 726 0
DWIDTH 12 0
BBX 11 11 0 0
BITMAP
1BFE40
2401A0
000030
000030
000590
01FE40
0001A0
000024
000024
6401A0
1BFE40
ENDCHAR
STARTCHAR four
ENCODING 52
SWIDTH 769 0
DWIDTH 12 0
BBX 12 11 0 0
BITMAP
0003C0
000DC0
0034C0
00D0C0
0340C0
0D00C0
3400C0
BFFFFE
0000C0
0000C0
0000C0
ENDCHAR
STARTCHAR five
ENCODING 53
SWIDTH 738 0
DWIDTH 12 0
BBX 10 11 1 0
BITMAP
BFFFC0
900000
900000
900000
BFFA00
0006D0
000060
000030
000060
9006C0
6FF900
ENDCHAR
STARTCHAR six
ENCODING 54
SWIDTH 772 0
DWIDTH 12 0
BBX 11 11 1 0
BITMAP
02BE80
1D4160
300000
900000
86FE40
E901B0
D00028
900018
700028
2901A0
06FE40
ENDCHAR
STARTCHAR seven
ENCODING 55
SWIDTH 669 0
DWIDTH 11 0
BBX 11 11 0 0
BITMAP
FFFFF4
000060
0000C0
000240
000600
000D00
002800
007000
009000
018000
030000
ENDCHAR
STARTCHAR eight
ENCODING 56
SWIDTH 793 0
DWIDTH 13 0
BBX 11 11 1 0
BITMAP
06FE40
2901A0
600030
300060
1E4680
07FE00
2905A0
D00028
C00018
A40174
1BFE80
ENDCHAR
STARTCHAR nine
ENCODING 57
SWIDTH 776 0
DWIDTH 12 0
BBX 12 11 0 0
BITMAP
06FE40
1D01B0
300018
60000C
30001D
2901B9
06FE49
00000C
000028
1901A0
06FE40
ENDCHAR
STARTCHAR colon
ENCODING 58
SWIDTH 245 0
DWIDTH 4 0
BBX 2 7 1 0
BITMAP
A0
A0
00
00
00
A0
A0
ENDCHAR
STARTCHAR semicolon
ENCODING 59
SWIDTH 234 0
DWIDTH 4 0
BBX 3 8 0 -1
BITMAP
28
28
00
00
00
24
30
60
ENDCHAR
STARTCHAR less
ENCODING 60
SWIDTH 634 0
DWIDTH 10 0
BBX 8 7 1 2
BITMAP
0006
01B8
2E40
B000
2E40
01B8
0006
ENDCHAR
STARTCHAR equal
ENCODING 61
SWIDTH 634 0
DWIDTH 10 0
BBX 8 4 1 3
BITMAP
BFFE
0000
0000
BFFE
ENDCHAR
STARTCHAR greater
ENCODING 62
SWIDTH 634 0
DWIDTH 10 0
BBX 8 7 1 2
BITMAP
A000
1E40
01B9
000B
01B9
1E40
A000
ENDCHAR
STARTCHAR question
ENCODING 63
SWIDTH 568 0
DWIDTH 9 0
BBX 7 11 1 0
BITMAP
6F90
9068
000C
0018
01A0
1E40
2400
0000
0000
2800
2800
ENDCHAR
STARTCHAR at
ENCODING 64
SWIDTH 1016 0
DWIDTH 16 0
BBX 14 11 1 0
BITMAP
006FE900
07901780
1C000090
302FF430
A0A07030
90C02070
90D0A1D0
607F6F40
34000000
0E401800
01BFE400
ENDCHAR
STARTCHAR A
ENCODING 65
SWIDTH 812 0
DWIDTH 13 0
BBX 13 11 0 0
BITMAP
001D0000
00270000
00624000
0090C000
01809000
03003000
06002400
0FFFFC00
18000900
30000300
60000240
ENDCHAR
STARTCHAR B
ENCODING 66
SWIDTH 836 0
DWIDTH 13 0
BBX 12 11 1 0
BITMAP
7FFF90
600064
600018
600018
600064
7FFFD0
60006C
600009
600009
60001C
7FFFE4
ENDCHAR
STARTCHAR C
ENCODING 67
SWIDTH 869 0
DWIDTH 14 0
BBX 12 11 1 0
BITMAP
01BFE4
0E401A
340000
A00000
900000
C00000
900000
A00000
340000
1E4016
01BFE4
ENDCHAR
STARTCHAR D
ENCODING 68
SWIDTH 910 0
DWIDTH 15 0
BBX 13 11 1 0
BITMAP
7FFF9000
60006D00
60000700
60000340
60000240
60000280
60000240
60000240
60000600
60006C00
7FFF9000
ENDCHAR
STARTCHAR E
ENCODING 69
SWIDTH 754 0
DWIDTH 12 0
BBX 10 11 1 0
BITMAP
7FFFE0
700000
700000
700000
700000
7FFFD0
700000
700000
700000
700000
7FFFF0
ENDCHAR
STARTCHAR F
ENCODING 70
SWIDTH 687 0
DWIDTH 11 0
BBX 10 11 1 0
BITMAP
7FFFD0
600000
600000
600000
600000
7FFFC0
600000
600000
600000
600000
600000
ENDCHAR
STARTCHAR G
ENCODING 71
SWIDTH 910 0
DWIDTH 15 0
BBX 13 11 1 0
BITMAP
01BFE900
0A401600
34000000
A0000000
90000000
C0000000
9003FF40
A0000240
34000240
1E400640
01BFF900
ENDCHAR
STARTCHAR H
ENCODING 72
SWIDTH 949 0
DWIDTH 15 0
BBX 13 11 1 0
BITMAP
60000240
60000240
60000240
60000240
60000240
7FFFFF40
60000240
60000240
60000240
60000240
60000240
ENDCHAR
STARTCHAR I
ENCODING 73
SWIDTH 287 0
DWIDTH 5 0
BBX 2 11 1 0
BITMAP
60
60
60
60
60
60
60
60
60
60
60
ENDCHAR
STARTCHAR J
ENCODING 74
SWIDTH 590 0
DWIDTH 9 0
BBX 8 11 0 0
BITMAP
0006
0006
0006
0006
0006
0006
0006
0006
000A
902C
6FE0
ENDCHAR
STARTCHAR K
ENCODING 75
SWIDTH 806 0
DWIDTH 13 0
BBX 11 11 1 0
BITMAP
600064
600280
601900
60A000
674000
7E0000
62D000
607800
600A40
6001D0
600028
ENDCHAR
STARTCHAR L
ENCODING 76
SWIDTH 701 0
DWIDTH 11 0
BBX 10 11 1 0
BITMAP
600000
600000
600000
600000
600000
600000
600000
600000
600000
600000
7FFFE0
ENDCHAR
STARTCHAR M
ENCODING 77
SWIDTH 1139 0
DWIDTH 18 0
BBX 16 11 1 0
BITMAP
7400000D
7800002D
69000079
63000099
61800189
60900309
60300909
60281809
600D3009
6006A009
6002C009
ENDCHAR
STARTCHAR N
ENCODING 78
SWIDTH 936 0
DWIDTH 15 0
BBX 13 11 1 0
BITMAP
74000240
7D000240
63400240
61D00240
60740240
601D0240
60074240
6001C240
60007240
60001F40
60000740
ENDCHAR
STARTCHAR O
ENCODING 79
SWIDTH 983 0
DWIDTH 16 0
BBX 14 11 1 0
BITMAP
01BFE400
1E401A00
34000180
A0000090
90000060
C0000060
D0000060
A0000090
34000180
1E401A00
01BFE400
ENDCHAR
STARTCHAR P
ENCODING 80
SWIDTH 818 0
DWIDTH 13 0
BBX 12 11 1 0
BITMAP
7FFF90
600068
60000C
600009
60000C
600068
7FFF90
600000
600000
600000
600000
ENDCHAR
STARTCHAR Q
ENCODING 81
SWIDTH 983 0
DWIDTH 16 0
BBX 15 11 1 0
BITMAP
01BFE400
1E401A00
34000180
A0000090
90000060
C0000060
D0000060
A0000090
34009180
1E406F50
01BFE5A4
ENDCHAR
STARTCHAR R
ENCODING 82
SWIDTH 833 0
DWIDTH 13 0
BBX 12 11 1 0
BITMAP
7FFF90
600074
600018
600018
600074
7FFF90
600280
6000D0
600070
600028
600009
ENDCHAR
STARTCHAR S
ENCODING 83
SWIDTH 787 0
DWIDTH 13 0
BBX 11 11 1 0
BITMAP
1BFE40
740190
900000
600000
2E4000
01B900
000190
000024
000024
A401A0
1BFE40
ENDCHAR
STARTCHAR T
ENCODING 84
SWIDTH 708 0
DWIDTH 11 0
BBX 11 11 0 0
BITMAP
BFFFFC
002000
002000
002000
002000
002000
002000
002000
002000
002000
002000
ENDCHAR
STARTCHAR U
ENCODING 85
SWIDTH 891 0
DWIDTH 14 0
BBX 12 11 1 0
BITMAP
600006
600006
600006
600006
600006
600006
600006
600006
300009
1D0068
06FF90
ENDCHAR
STARTCHAR V
ENCODING 86
SWIDTH 817 0
DWIDTH 13 0
BBX 13 11 0 0
BITMAP
60000240
24000300
18000900
0D000C00
06002400
03403000
01809000
00D0C000
00624000
00370000
001D0000
ENDCHAR
STARTCHAR W
ENCODING 87
SWIDTH 1266 0
DWIDTH 20 0
BBX 20 11 0 0
BITMAP
70002C0009
240039000C
1800660018
0C00D30024
0901824070
060241C0A0
03430090C0
0186006180
00C9003240
009C002700
0078001E00
ENDCHAR
STARTCHAR X
ENCODING 88
SWIDTH 821 0
DWIDTH 13 0
BBX 11 11 1 0
BITMAP
A00018
280060
0A0180
024700
00AC00
007400
00DD00
034340
0D01D0
240070
90001C
ENDCHAR
STARTCHAR Y
ENCODING 89
SWIDTH 763 0
DWIDTH 12 0
BBX 11 11 1 0
BITMAP
D00034
700090
180280
0A0600
024C00
00E400
006000
006000
006000
006000
006000
ENDCHAR
STARTCHAR Z
ENCODING 90
SWIDTH 728 0
DWIDTH 12 0
BBX 10 11 1 0
BITMAP
BFFFD0
000180
000600
001C00
003400
009000
024000
0A0000
180000
600000
FFFFE0
ENDCHAR
STARTCHAR bracketleft
ENCODING 91
SWIDTH 409 0
DWIDTH 7 0
BBX 4 13 2 -1
BITMAP
FE
C0
C0
C0
C0
C0
C0
C0
C0
C0
C0
C0
FE
ENDCHAR
STARTCHAR backslash
ENCODING 92
SWIDTH 500 0
DWIDTH 8 0
BBX 6 11 1 0
BITMAP
8000
6000
3000
1800
0C00
0500
0300
0240
00C0
0090
0020
ENDCHAR
STARTCHAR bracketright
ENCODING 93
SWIDTH 409 0
DWIDTH 7 0
BBX 5 13 0 -1
BITMAP
7F80
0180
0180
0180
0180
0180
0180
0180
0180
0180
0180
0180
7F80
ENDCHAR
STARTCHAR asciicircum
ENCODING 94
SWIDTH 459 0
DWIDTH 7 0
BBX 7 5 0 6
BITMAP
0340
09C0
1860
2430
6018
ENDCHAR
STARTCHAR underscore
ENCODING 95
SWIDTH 500 0
DWIDTH 8 0
BBX 8 1 0 -2
BITMAP
FFFF
ENDCHAR
STARTCHAR grave
ENCODING 96
SWIDTH 527 0
DWIDTH 8 0
BBX 4 2 1 9
BITMAP
64
06
ENDCHAR
STARTCHAR a
ENCODING 97
SWIDTH 888 0
DWIDTH 14 0
BBX 12 11 1 0
BITMAP
06FF90
250068
000009
000005
006AFE
1BA506
740006
C00006
C0000A
B401BE
1BFE46
ENDCHAR
STARTCHAR b
ENCODING 98
SWIDTH 836 0
DWIDTH 13 0
BBX 12 11 1 0
BITMAP
7FFF90
600064
600018
600018
600064
7FFFD0
60006C
600009
600009
60001C
7FFFE4
ENDCHAR
STARTCHAR c
ENCODING 99
SWIDTH 869 0
DWIDTH 14 0
BBX 12 11 1 0
BITMAP
01BFE4
0E401A
340000
A00000
900000
C00000
900000
A00000
340000
1E4016
01BFE4
ENDCHAR
STARTCHAR d
ENCODING 100
SWIDTH 910 0
DWIDTH 15 0
BBX 13 11 1 0
BITMAP
7FFF9000
60006D00
60000700
60000340
60000240
60000280
60000240
60000240
60000600
60006C00
7FFF9000
ENDCHAR
STARTCHAR e
ENCODING 101
SWIDTH 910 0
DWIDTH 15 0
BBX 13 11 1 0
BITMAP
01BF9000
1E406800
34000600
A0000200
90000240
FFFFFF40
C0000000
A0000000
34000000
1E401A00
01BFE400
ENDCHAR
STARTCHAR f
ENCODING 102
SWIDTH 817 0
DWIDTH 13 0
BBX 11 11 1 0
BITMAP
06FFFC
1D0000
300000
600000
600000
7FFFFC
600000
600000
600000
600000
600000
ENDCHAR
STARTCHAR g
ENCODING 103
SWIDTH 910 0
DWIDTH 15 0
BBX 13 11 1 0
BITMAP
01BFE900
0A401600
34000000
A0000000
90000000
C0000000
9003FF40
A0000240
34000240
1E400640
01BFF900
ENDCHAR
STARTCHAR h
ENCODING 104
SWIDTH 949 0
DWIDTH 15 0
BBX 13 11 1 0
BITMAP
60000240
60000240
60000240
60000240
60000240
7FFFFF40
60000240
60000240
60000240
60000240
60000240
ENDCHAR
STARTCHAR i
ENCODING 105
SWIDTH 287 0
DWIDTH 5 0
BBX 2 11 1 0
BITMAP
60
60
60
60
60
60
60
60
60
60
60
ENDCHAR
STARTCHAR j
ENCODING 106
SWIDTH 590 0
DWIDTH 9 0
BBX 8 11 0 0
BITMAP
0006
0006
0006
0006
0006
0006
0006
0006
000A
902C
6FE0
ENDCHAR
STARTCHAR k
ENCODING 107
SWIDTH 867 0
DWIDTH 14 0
BBX 12 11 1 0
BITMAP
60000C
600018
600034
6001D0
601A40
7FF900
601690
600074
60001C
60000A
600006
ENDCHAR
STARTCHAR l
ENCODING 108
SWIDTH 709 0
DWIDTH 11 0
BBX 11 11 1 0
BITMAP
600000
600000
600000
600000
600000
600000
600000
200000
300000
290000
0BFFF4
ENDCHAR
STARTCHAR m
ENCODING 109
SWIDTH 1246 0
DWIDTH 20 0
BBX 18 11 1 0
BITMAP
61BE02FD00
6A429D0680
7400A000C0
60009000D0
6000900090
6000900090
6000900090
6000900090
6000900090
6000900090
6000900090
ENDCHAR
STARTCHAR n
ENCODING 110
SWIDTH 933 0
DWIDTH 15 0
BBX 13 11 1 0
BITMAP
606FE400
66901A00
79000300
70000300
60000240
60000240
60000240
60000240
60000240
60000240
60000240
ENDCHAR
STARTCHAR o
ENCODING 111
SWIDTH 983 0
DWIDTH 16 0
BBX 14 11 1 0
BITMAP
01BFE400
1E401A00
34000180
A0000090
90000060
C0000060
D0000060
A0000090
34000180
1E401A00
01BFE400
ENDCHAR
STARTCHAR p
ENCODING 112
SWIDTH 818 0
DWIDTH 13 0
BBX 12 11 1 0
BITMAP
7FFF90
600068
60000C
600009
60000C
600068
7FFF90
600000
600000
600000
600000
ENDCHAR
STARTCHAR q
ENCODING 113
SWIDTH 983 0
DWIDTH 16 0
BBX 15 11 1 0
BITMAP
01BFE400
1E401A00
34000180
A0000090
90000060
C0000060
D0000060
A0000090
34000180
1E401B40
01BFE5B4
ENDCHAR
STARTCHAR r
ENCODING 114
SWIDTH 609 0
DWIDTH 10 0
BBX 9 11 1 0
BITMAP
606F80
669000
790000
700000
600000
600000
600000
600000
600000
600000
600000
ENDCHAR
STARTCHAR s
ENCODING 115
SWIDTH 787 0
DWIDTH 13 0
BBX 11 11 1 0
BITMAP
1BFE40
740190
900000
600000
2E4000
01B900
000190
000024
000024
A401A0
1BFE40
ENDCHAR
STARTCHAR t
ENCODING 116
SWIDTH 708 0
DWIDTH 11 0
BBX 11 11 0 0
BITMAP
BFFFFC
002000
002000
002000
002000
002000
002000
002000
002000
002000
002000
ENDCHAR
STARTCHAR u
ENCODING 117
SWIDTH 931 0
DWIDTH 15 0
BBX 12 11 1 0
BITMAP
600003
600003
600003
600003
600003
600003
600003
600003
30001F
2901A7
06FE43
ENDCHAR
STARTCHAR v
ENCODING 118
SWIDTH 817 0
DWIDTH 13 0
BBX 13 11 0 0
BITMAP
60000240
24000300
18000900
0D000C00
06002400
03403000
01809000
00D0C000
00624000
00370000
001D0000
ENDCHAR
STARTCHAR w
ENCODING 119
SWIDTH 1266 0
DWIDTH 20 0
BBX 20 11 0 0
BITMAP
70002C0009
240039000C
1800660018
0C00D30024
0901824070
060241C0A0
03430090C0
0186006180
00C9003240
009C002700
0078001E00
ENDCHAR
STARTCHAR x
ENCODING 120
SWIDTH 821 0
DWIDTH 13 0
BBX 11 11 1 0
BITMAP
A00018
280060
0A0180
024700
00AC00
007400
00DD00
034340
0D01D0
240070
90001C
ENDCHAR
STARTCHAR y
ENCODING 121
SWIDTH 911 0
DWIDTH 15 0
BBX 12 11 1 0
BITMAP
900006
900006
900006
600006
70001E
2D01A6
06FE46
000006
00000D
6401B8
1BFE90
ENDCHAR
STARTCHAR z
ENCODING 122
SWIDTH 728 0
DWIDTH 12 0
BBX 10 11 1 0
BITMAP
BFFFD0
000180
000600
001C00
003400
009000
024000
0A0000
180000
600000
FFFFE0
ENDCHAR
STARTCHAR braceleft
ENCODING 123
SWIDTH 386 0
DWIDTH 6 0
BBX 6 13 0 -1
BITMAP
02D0
0A00
0900
0900
0900
1C00
B400
1C00
0900
0900
0900
0A00
02D0
ENDCHAR
STARTCHAR bar
ENCODING 124
SWIDTH 259 0
DWIDTH 4 0
BBX 2 16 1 -4
BITMAP
60
60
60
60
60
60
60
60
60
60
60
60
60
60
60
60
ENDCHAR
STARTCHAR braceright
ENCODING 125
SWIDTH 386 0
DWIDTH 6 0
BBX 6 13 0 -1
BITMAP
7900
0600
0300
0300
0300
0240
01E0
0240
0300
0300
0300
0600
7D00
ENDCHAR
STARTCHAR asciitilde
ENCODING 126
SWIDTH 634 0
DWIDTH 10 0
BBX 8 2 1 5
BITMAP
7E42
41BD
ENDCHAR
STARTCHAR nonbreakingspace
ENCODING 160
SWIDTH 375 0
DWIDTH 6 0
BBX 1 1 0 0
BITMAP
00
ENDCHAR
STARTCHAR exclamdown
ENCODING 161
SWIDTH 274 0
DWIDTH 4 0
BBX 2 11 1 0
BITMAP
60
60
00
20
60
60
60
60
60
60
60
ENDCHAR
STARTCHAR cent
ENCODING 162
SWIDTH 736 0
DWIDTH 12 0
BBX 10 13 1 -1
BITMAP
003000
06FE90
2D3060
A03000
C03000
C03000
C03000
C03000
A03000
2D3060
06FF90
003000
003000
ENDCHAR
STARTCHAR sterling
ENCODING 163
SWIDTH 792 0
DWIDTH 13 0
BBX 11 11 1 0
BITMAP
00BF90
034060
060000
090000
090000
FFFF40
090000
090000
0C0000
2C0000
FFFFF8
ENDCHAR
STARTCHAR currency
ENCODING 164
SWIDTH 560 0
DWIDTH 9 0
BBX 7 8 1 1
BITMAP
4004
6BA4
3470
6024
6024
3470
ABA4
4004
ENDCHAR
STARTCHAR yen
ENCODING 165
SWIDTH 811 0
DWIDTH 13 0
BBX 11 11 1 0
BITMAP
A00028
340070
1C00D0
060240
028A00
BFEFF8
007000
BFFFF8
003000
003000
003000
ENDCHAR
STARTCHAR brokenbar
ENCODING 166
SWIDTH 259 0
DWIDTH 4 0
BBX 2 14 1 -3
BITMAP
60
60
60
60
60
60
00
00
60
60
60
60
60
60
ENDCHAR
STARTCHAR section
ENCODING 167
SWIDTH 500 0
DWIDTH 8 0
BBX 6 11 1 0
BITMAP
2F40
6080
6010
3D00
81D0
C030
7470
0BC0
0090
5090
2F80
ENDCHAR
STARTCHAR dieresis
ENCODING 168
SWIDTH 527 0
DWIDTH 8 0
BBX 5 1 2 9
BITMAP
D240
ENDCHAR
STARTCHAR copyright
ENCODING 169
SWIDTH 770 0
DWIDTH 12 0
BBX 12 11 0 0
BITMAP
01BE40
0641A0
187E18
218148
220005
630006
220005
218148
187E18
0741A0
01BE40
ENDCHAR
STARTCHAR ordfeminine
ENCODING 170
SWIDTH 497 0
DWIDTH 8 0
BBX 7 8 0 3
BITMAP
3FE4
001C
1AFC
6508
601C
2FEC
0000
7FFC
ENDCHAR
STARTCHAR guillemotleft
ENCODING 171
SWIDTH 440 0
DWIDTH 7 0
BBX 6 5 0 3
BITMAP
0920
2890
6180
2890
0920
ENDCHAR
STARTCHAR logicalnot
ENCODING 172
SWIDTH 634 0
DWIDTH 10 0
BBX 8 4 1 3
BITMAP
BFFE
0002
0002
0002
ENDCHAR
STARTCHAR uni00AD
ENCODING 173
SWIDTH 540 0
DWIDTH 9 0
BBX 7 1 1 5
BITMAP
BFF4
ENDCHAR
STARTCHAR registered
ENCODING 174
SWIDTH 600 0
DWIDTH 10 0
BBX 8 8 1 3
BITMAP
1BE0
6418
8BD5
8862
8BD2
8855
6418
1BE0
ENDCHAR
STARTCHAR macron
ENCODING 175
SWIDTH 527 0
DWIDTH 8 0
BBX 5 1 2 9
BITMAP
FF40
ENDCHAR
STARTCHAR degree
ENCODING 176
SWIDTH 373 0
DWIDTH 6 0
BBX 4 4 1 7
BITMAP
7D
82
82
7D
ENDCHAR
STARTCHAR plusminus
ENCODING 177
SWIDTH 634 0
DWIDTH 10 0
BBX 8 9 1 1
BITMAP
0180
0180
0180
BFFE
0180
0180
0180
0000
BFFE
ENDCHAR
STARTCHAR twosuperior
ENCODING 178
SWIDTH 511 0
DWIDTH 8 0
BBX 8 7 0 4
BITMAP
1FE4
601C
0008
0018
0190
1900
7FFD
ENDCHAR
STARTCHAR threesuperior
ENCODING 179
SWIDTH 512 0
DWIDTH 8 0
BBX 7 7 0 4
BITMAP
7FE0
0018
0028
07E0
0018
001C
7FE4
ENDCHAR
STARTCHAR acute
ENCODING 180
SWIDTH 527 0
DWIDTH 8 0
BBX 4 2 3 9
BITMAP
0A
64
ENDCHAR
STARTCHAR micro
ENCODING 181
SWIDTH 705 0
DWIDTH 11 0
BBX 10 10 0 -3
BITMAP
090060
090090
0C0090
0800C0
1801C0
2D0A80
26E4C0
300000
200000
600000
ENDCHAR
STARTCHAR paragraph
ENCODING 182
SWIDTH 585 0
DWIDTH 9 0
BBX 7 11 1 0
BITMAP
1FF4
BF54
FF54
FF54
BF54
1F54
0154
0154
0154
0154
0154
ENDCHAR
STARTCHAR periodcentered
ENCODING 183
SWIDTH 185 0
DWIDTH 3 0
BBX 2 2 0 5
BITMAP
70
70
ENDCHAR
STARTCHAR cedilla
ENCODING 184
SWIDTH 527 0
DWIDTH 8 0
BBX 4 3 2 -3
BITMAP
1E
03
BE
ENDCHAR
STARTCHAR onesuperior
ENCODING 185
SWIDTH 261 0
DWIDTH 4 0
BBX 3 7 0 4
BITMAP
F8
08
08
08
08
08
08
ENDCHAR
STARTCHAR ordmasculine
ENCODING 186
SWIDTH 520 0
DWIDTH 8 0
BBX 8 8 0 3
BITMAP
0BE4
3419
5002
5002
3419
1BE4
0000
3FFD
ENDCHAR
STARTCHAR guillemotright
ENCODING 187
SWIDTH 440 0
DWIDTH 7 0
BBX 6 5 1 3
BITMAP
8600
6180
2890
6180
8600
ENDCHAR
STARTCHAR onequarter
ENCODING 188
SWIDTH 857 0
DWIDTH 14 0
BBX 13 11 0 0
BITMAP
BC002800
0C006000
0C008000
0C024000
0C090000
0C181D00
00606900
00818500
02420500
0A0BFFC0
18000500
ENDCHAR
STARTCHAR onehalf
ENCODING 189
SWIDTH 937 0
DWIDTH 15 0
BBX 14 11 0 0
BITMAP
BC002800
0C006000
0C008000
0C024000
0C090000
0C18BF80
006000A0
00800050
02400180
0A001900
1800BFE0
ENDCHAR
STARTCHAR threequarters
ENCODING 190
SWIDTH 978 0
DWIDTH 16 0
BBX 15 11 0 0
BITMAP
3FD00240
00700600
07D01800
00702000
00709000
7FD281D0
00060690
00081890
00246090
0090BFFC
01800090
ENDCHAR
STARTCHAR questiondown
ENCODING 191
SWIDTH 568 0
DWIDTH 9 0
BBX 7 11 1 0
BITMAP
00A0
00A0
0000
0000
0060
02E0
2900
9000
D000
A418
1BE4
ENDCHAR
STARTCHAR Agrave
ENCODING 192
SWIDTH 812 0
DWIDTH 13 0
BBX 13 14 0 0
BITMAP
00900000
00190000
00000000
001D0000
00270000
00624000
0090C000
01809000
03003000
06002400
0FFFFC00
18000900
30000300
60000240
ENDCHAR
STARTCHAR Aacute
ENCODING 193
SWIDTH 812 0
DWIDTH 13 0
BBX 13 14 0 0
BITMAP
00018000
00190000
00000000
001D0000
00270000
00624000
0090C000
01809000
03003000
06002400
0FFFFC00
18000900
30000300
60000240
ENDCHAR
STARTCHAR Acircumflex
ENCODING 194
SWIDTH 812 0
DWIDTH 13 0
BBX 13 14 0 0
BITMAP
002E0000
01919000
00000000
001D0000
00270000
00624000
0090C000
01809000
03003000
06002400
0FFFFC00
18000900
30000300
60000240
ENDCHAR
STARTCHAR Atilde
ENCODING 195
SWIDTH 812 0
DWIDTH 13 0
BBX 13 14 0 0
BITMAP
00B89000
008B8000
00000000
001D0000
00270000
00624000
0090C000
01809000
03003000
06002400
0FFFFC00
18000900
30000300
60000240
ENDCHAR
STARTCHAR Adieresis
ENCODING 196
SWIDTH 812 0
DWIDTH 13 0
BBX 13 13 0 0
BITMAP
00A18000
00000000
001D0000
00270000
00624000
0090C000
01809000
03003000
06002400
0FFFFC00
18000900
30000300
60000240
ENDCHAR
STARTCHAR Aring
ENCODING 197
SWIDTH 812 0
DWIDTH 13 0
BBX 13 15 0 0
BITMAP
002E0000
00618000
002E0000
00000000
001D0000
00270000
00624000
0090C000
01809000
03003000
06002400
0FFFFC00
18000900
30000300
60000240
ENDCHAR
STARTCHAR AE
ENCODING 198
SWIDTH 1172 0
DWIDTH 19 0
BBX 18 11 0 0
BITMAP
0003FFFFD0
0009A00000
0018A00000
0030A00000
0090A00000
0180BFFFC0
0300A00000
0BFFE00000
1800A00000
3400A00000
A000BFFFE0
ENDCHAR
STARTCHAR Ccedilla
ENCODING 199
SWIDTH 869 0
DWIDTH 14 0
BBX 12 14 1 -3
BITMAP
01BFE4
0E401A
340000
A00000
900000
C00000
900000
A00000
340000
1E4016
01BFE4
000E00
000240
007E00
ENDCHAR
STARTCHAR Egrave
ENCODING 200
SWIDTH 754 0
DWIDTH 12 0
BBX 10 14 1 0
BITMAP
064000
006000
000000
7FFFE0
700000
700000
700000
700000
7FFFD0
700000
700000
700000
700000
7FFFF0
ENDCHAR
STARTCHAR Eacute
ENCODING 201
SWIDTH 754 0
DWIDTH 12 0
BBX 10 14 1 0
BITMAP
000A00
006400
000000
7FFFE0
700000
700000
700000
700000
7FFFD0
700000
700000
700000
700000
7FFFF0
ENDCHAR
STARTCHAR Ecircumflex
ENCODING 202
SWIDTH 754 0
DWIDTH 12 0
BBX 10 14 1 0
BITMAP
01B400
064600
000000
7FFFE0
700000
700000
700000
700000
7FFFD0
700000
700000
700000
700000
7FFFF0
ENDCHAR
STARTCHAR Edieresis
ENCODING 203
SWIDTH 754 0
DWIDTH 12 0
BBX 10 13 1 0
BITMAP
034900
000000
7FFFE0
700000
700000
700000
700000
7FFFD0
700000
700000
700000
700000
7FFFF0
ENDCHAR
STARTCHAR Igrave
ENCODING 204
SWIDTH 287 0
DWIDTH 5 0
BBX 4 14 -1 0
BITMAP
64
06
00
06
06
06
06
06
06
06
06
06
06
06
ENDCHAR
STARTCHAR Iacute
ENCODING 205
SWIDTH 287 0
DWIDTH 5 0
BBX 4 14 1 0
BITMAP
06
64
00
60
60
60
60
60
60
60
60
60
60
60
ENDCHAR
STARTCHAR Icircumflex
ENCODING 206
SWIDTH 287 0
DWIDTH 5 0
BBX 6 14 -1 0
BITMAP
0B40
6460
0000
0600
0600
0600
0600
0600
0600
0600
0600
0600
0600
0600
ENDCHAR
STARTCHAR Idieresis
ENCODING 207
SWIDTH 287 0
DWIDTH 5 0
BBX 5 13 0 0
BITMAP
D240
0000
1800
1800
1800
1800
1800
1800
1800
1800
1800
1800
1800
ENDCHAR
STARTCHAR Eth
ENCODING 208
SWIDTH 910 0
DWIDTH 15 0
BBX 14 11 0 0
BITMAP
1FFFE400
18001B40
180002C0
180000D0
18000090
BFFD00A0
18000090
180000D0
180001C0
18001B00
1FFFE400
ENDCHAR
STARTCHAR Ntilde
ENCODING 209
SWIDTH 936 0
DWIDTH 15 0
BBX 13 14 1 0
BITMAP
00B89000
018B8000
00000000
74000240
7D000240
63400240
61D00240
60740240
601D0240
60074240
6001C240
60007240
60001F40
60000740
ENDCHAR
STARTCHAR Ograve
ENCODING 210
SWIDTH 983 0
DWIDTH 16 0
BBX 14 14 1 0
BITMAP
00A00000
001A0000
00000000
01BFE400
1E401A00
34000180
A0000090
90000060
C0000060
D0000060
A0000090
34000180
1E401A00
01BFE400
ENDCHAR
STARTCHAR Oacute
ENCODING 211
SWIDTH 983 0
DWIDTH 16 0
BBX 14 14 1 0
BITMAP
00019000
000A0000
00000000
01BFE400
1E401A00
34000180
A0000090
90000060
C0000060
D0000060
A0000090
34000180
1E401A00
01BFE400
ENDCHAR
STARTCHAR Ocircumflex
ENCODING 212
SWIDTH 983 0
DWIDTH 16 0
BBX 14 14 1 0
BITMAP
001A4000
00A5A000
00000000
01BFE400
1E401A00
34000180
A0000090
90000060
C0000060
D0000060
A0000090
34000180
1E401A00
01BFE400
ENDCHAR
STARTCHAR Otilde
ENCODING 213
SWIDTH 983 0
DWIDTH 16 0
BBX 14 14 1 0
BITMAP
00796000
0086D000
00000000
01BFE400
1E401A00
34000180
A0000090
90000060
C0000060
D0000060
A0000090
34000180
1E401A00
01BFE400
ENDCHAR
STARTCHAR Odieresis
ENCODING 214
SWIDTH 983 0
DWIDTH 16 0
BBX 14 13 1 0
BITMAP
0070C000
00000000
01BFE400
1E401A00
34000180
A0000090
90000060
C0000060
D0000060
A0000090
34000180
1E401A00
01BFE400
ENDCHAR
STARTCHAR multiply
ENCODING 215
SWIDTH 634 0
DWIDTH 10 0
BBX 6 7 2 2
BITMAP
8020
60A0
1A80
0B00
1A80
60A0
8020
ENDCHAR
STARTCHAR Oslash
ENCODING 216
SWIDTH 983 0
DWIDTH 16 0
BBX 14 13 1 -1
BITMAP
00000600
01BFEC00
1E402A00
34006180
A0008090
90024060
C0090060
90180060
A0200090
34900180
1E801A00
06BFE400
08000000
ENDCHAR
STARTCHAR Ugrave
ENCODING 217
SWIDTH 891 0
DWIDTH 14 0
BBX 12 14 1 0
BITMAP
019000
002800
000000
600006
600006
600006
600006
600006
600006
600006
600006
300009
1D0068
06FF90
ENDCHAR
STARTCHAR Uacute
ENCODING 218
SWIDTH 891 0
DWIDTH 14 0
BBX 12 14 1 0
BITMAP
000280
001900
000000
600006
600006
600006
600006
600006
600006
600006
600006
300009
1D0068
06FF90
ENDCHAR
STARTCHAR Ucircumflex
ENCODING 219
SWIDTH 891 0
DWIDTH 14 0
BBX 12 14 1 0
BITMAP
006900
029280
000000
600006
600006
600006
600006
600006
600006
600006
600006
300009
1D0068
06FF90
ENDCHAR
STARTCHAR Udieresis
ENCODING 220
SWIDTH 891 0
DWIDTH 14 0
BBX 12 13 1 0
BITMAP
00C340
000000
600006
600006
600006
600006
600006
600006
600006
600006
300009
1D0068
06FF90
ENDCHAR
STARTCHAR Yacute
ENCODING 221
SWIDTH 763 0
DWIDTH 12 0
BBX 11 14 1 0
BITMAP
000A00
006400
000000
D00034
700090
180280
0A0600
024C00
00E400
006000
006000
006000
006000
006000
ENDCHAR
STARTCHAR Thorn
ENCODING 222
SWIDTH 787 0
DWIDTH 13 0
BBX 11 11 1 0
BITMAP
600000
600000
7FFF80
600070
600028
600018
600028
600070
7FFF80
600000
600000
ENDCHAR
STARTCHAR germandbls
ENCODING 223
SWIDTH 863 0
DWIDTH 14 0
BBX 12 11 1 0
BITMAP
06FF90
2D0068
70000C
600064
90FFE0
900068
90000A
900006
900006
92406D
91BFA0
ENDCHAR
STARTCHAR agrave
ENCODING 224
SWIDTH 888 0
DWIDTH 14 0
BBX 12 14 1 0
BITMAP
019000
006800
000000
06FF90
250068
000009
000005
006AFE
1BA506
740006
C00006
C0000A
B401BE
1BFE46
ENDCHAR
STARTCHAR aacute
ENCODING 225
SWIDTH 888 0
DWIDTH 14 0
BBX 12 14 1 0
BITMAP
000280
002900
000000
06FF90
250068
000009
000005
006AFE
1BA506
740006
C00006
C0000A
B401BE
1BFE46
ENDCHAR
STARTCHAR acircumflex
ENCODING 226
SWIDTH 888 0
DWIDTH 14 0
BBX 12 14 1 0
BITMAP
006900
029680
000000
06FF90
250068
000009
000005
006AFE
1BA506
740006
C00006
C0000A
B401BE
1BFE46
ENDCHAR
STARTCHAR atilde
ENCODING 227
SWIDTH 888 0
DWIDTH 14 0
BBX 12 14 1 0
BITMAP
01E480
025B40
000000
06FF90
250068
000009
000005
006AFE
1BA506
740006
C00006
C0000A
B401BE
1BFE46
ENDCHAR
STARTCHAR adieresis
ENCODING 228
SWIDTH 888 0
DWIDTH 14 0
BBX 12 13 1 0
BITMAP
00C340
000000
06FF90
250068
000009
000005
006AFE
1BA506
740006
C00006
C0000A
B401BE
1BFE46
ENDCHAR
STARTCHAR aring
ENCODING 229
SWIDTH 888 0
DWIDTH 14 0
BBX 12 15 1 0
BITMAP
007E00
00C300
007E00
000000
06FF90
250068
000009
000005
006AFE
1BA506
740006
C00006
C0000A
B401BE
1BFE46
ENDCHAR
STARTCHAR ae
ENCODING 230
SWIDTH 1551 0
DWIDTH 25 0
BBX 23 11 1 0
BITMAP
06FF901BFA00
250068B406D0
00000A800030
000007000018
006AFE000008
1BA50BFFFFFC
740006000000
C00003000000
C00007800000
B401B9B50160
1BFE401AFE90
ENDCHAR
STARTCHAR ccedilla
ENCODING 231
SWIDTH 869 0
DWIDTH 14 0
BBX 12 14 1 -3
BITMAP
01BFE4
0E401A
340000
A00000
900000
C00000
900000
A00000
340000
1E4016
01BFE4
000E00
000240
007E00
ENDCHAR
STARTCHAR egrave
ENCODING 232
SWIDTH 910 0
DWIDTH 15 0
BBX 13 14 1 0
BITMAP
01900000
00180000
00000000
01BF9000
1E406800
34000600
A0000200
90000240
FFFFFF40
C0000000
A0000000
34000000
1E401A00
01BFE400
ENDCHAR
STARTCHAR eacute
ENCODING 233
SWIDTH 910 0
DWIDTH 15 0
BBX 13 14 1 0
BITMAP
00018000
00190000
00000000
01BF9000
1E406800
34000600
A0000200
90000240
FFFFFF40
C0000000
A0000000
34000000
1E401A00
01BFE400
ENDCHAR
STARTCHAR ecircumflex
ENCODING 234
SWIDTH 910 0
DWIDTH 15 0
BBX 13 14 1 0
BITMAP
002D0000
01918000
00000000
01BF9000
1E406800
34000600
A0000200
90000240
FFFFFF40
C0000000
A0000000
34000000
1E401A00
01BFE400
ENDCHAR
STARTCHAR edieresis
ENCODING 235
SWIDTH 910 0
DWIDTH 15 0
BBX 13 13 1 0
BITMAP
00924000
00000000
01BF9000
1E406800
34000600
A0000200
90000240
FFFFFF40
C0000000
A0000000
34000000
1E401A00
01BFE400
ENDCHAR
STARTCHAR igrave
ENCODING 236
SWIDTH 287 0
DWIDTH 5 0
BBX 4 14 -1 0
BITMAP
64
06
00
06
06
06
06
06
06
06
06
06
06
06
ENDCHAR
STARTCHAR iacute
ENCODING 237
SWIDTH 287 0
DWIDTH 5 0
BBX 4 14 1 0
BITMAP
06
64
00
60
60
60
60
60
60
60
60
60
60
60
ENDCHAR
STARTCHAR icircumflex
ENCODING 238
SWIDTH 287 0
DWIDTH 5 0
BBX 6 14 -1 0
BITMAP
0B40
6460
0000
0600
0600
0600
0600
0600
0600
0600
0600
0600
0600
0600
ENDCHAR
STARTCHAR idieresis
ENCODING 239
SWIDTH 287 0
DWIDTH 5 0
BBX 5 13 0 0
BITMAP
D240
0000
1800
1800
1800
1800
1800
1800
1800
1800
1800
1800
1800
ENDCHAR
STARTCHAR eth
ENCODING 240
SWIDTH 910 0
DWIDTH 15 0
BBX 14 11 0 0
BITMAP
1FFFE400
18001B40
180002C0
180000D0
18000090
BFFD00A0
18000090
180000D0
180001C0
18001B00
1FFFE400
ENDCHAR
STARTCHAR ntilde
ENCODING 241
SWIDTH 933 0
DWIDTH 15 0
BBX 13 14 1 0
BITMAP
00B48000
014B8000
00000000
606FE400
66901A00
79000300
70000300
60000240
60000240
60000240
60000240
60000240
60000240
60000240
ENDCHAR
STARTCHAR ograve
ENCODING 242
SWIDTH 983 0
DWIDTH 16 0
BBX 14 14 1 0
BITMAP
00A00000
001A0000
00000000
01BFE400
1E401A00
34000180
A0000090
90000060
C0000060
D0000060
A0000090
34000180
1E401A00
01BFE400
ENDCHAR
STARTCHAR oacute
ENCODING 243
SWIDTH 983 0
DWIDTH 16 0
BBX 14 14 1 0
BITMAP
00019000
000A0000
00000000
01BFE400
1E401A00
34000180
A0000090
90000060
C0000060
D0000060
A0000090
34000180
1E401A00
01BFE400
ENDCHAR
STARTCHAR ocircumflex
ENCODING 244
SWIDTH 983 0
DWIDTH 16 0
BBX 14 14 1 0
BITMAP
001A4000
00A5A000
00000000
01BFE400
1E401A00
34000180
A0000090
90000060
C0000060
D0000060
A0000090
34000180
1E401A00
01BFE400
ENDCHAR
STARTCHAR otilde
ENCODING 245
SWIDTH 983 0
DWIDTH 16 0
BBX 14 14 1 0
BITMAP
00796000
0086D000
00000000
01BFE400
1E401A00
34000180
A0000090
90000060
C0000060
D0000060
A0000090
34000180
1E401A00
01BFE400
ENDCHAR
STARTCHAR odieresis
ENCODING 246
SWIDTH 983 0
DWIDTH 16 0
BBX 14 13 1 0
BITMAP
0070C000
00000000
01BFE400
1E401A00
34000180
A0000090
90000060
C0000060
D0000060
A0000090
34000180
1E401A00
01BFE400
ENDCHAR
STARTCHAR divide
ENCODING 247
SWIDTH 634 0
DWIDTH 10 0
BBX 8 7 1 2
BITMAP
0180
0000
0000
BFFE
0000
0000
0180
ENDCHAR
STARTCHAR oslash
ENCODING 248
SWIDTH 983 0
DWIDTH 16 0
BBX 14 13 1 -1
BITMAP
00000600
01BFEC00
1E402A00
34006180
A0008090
90024060
C0090060
90180060
A0200090
34900180
1E801A00
06BFE400
08000000
ENDCHAR
STARTCHAR ugrave
ENCODING 249
SWIDTH 931 0
DWIDTH 15 0
BBX 12 14 1 0
BITMAP
009000
001900
000000
600003
600003
600003
600003
600003
600003
600003
600003
30001F
2901A7
06FE43
ENDCHAR
STARTCHAR uacute
ENCODING 250
SWIDTH 931 0
DWIDTH 15 0
BBX 12 14 1 0
BITMAP
000180
001900
000000
600003
600003
600003
600003
600003
600003
600003
600003
30001F
2901A7
06FE43
ENDCHAR
STARTCHAR ucircumflex
ENCODING 251
SWIDTH 931 0
DWIDTH 15 0
BBX 12 14 1 0
BITMAP
002D00
019190
000000
600003
600003
600003
600003
600003
600003
600003
600003
30001F
2901A7
06FE43
ENDCHAR
STARTCHAR udieresis
ENCODING 252
SWIDTH 931 0
DWIDTH 15 0
BBX 12 13 1 0
BITMAP
009280
000000
600003
600003
600003
600003
600003
600003
600003
600003
30001F
2901A7
06FE43
ENDCHAR
STARTCHAR yacute
ENCODING 253
SWIDTH 911 0
DWIDTH 15 0
BBX 12 14 1 0
BITMAP
000280
001900
000000
900006
900006
900006
600006
70001E
2D01A6
06FE46
000006
00000D
6401B8
1BFE90
ENDCHAR
STARTCHAR thorn
ENCODING 254
SWIDTH 787 0
DWIDTH 13 0
BBX 11 11 1 0
BITMAP
600000
600000
7FFF80
600070
600028
600018
600028
600070
7FFF80
600000
600000
ENDCHAR
STARTCHAR ydieresis
ENCODING 255
SWIDTH 911 0
DWIDTH 15 0
BBX 12 13 1 0
BITMAP
00C340
000000
900006
900006
900006
600006
70001E
2D01A6
06FE46
000006
00000D
6401B8
1BFE90
ENDCHAR
STARTCHAR Amacron
ENCODING 256
SWIDTH 812 0
DWIDTH 13 0
BBX 13 13 0 0
BITMAP
00BF8000
00000000
001D0000
00270000
00624000
0090C000
01809000
03003000
06002400
0FFFFC00
18000900
30000300
60000240
ENDCHAR
STARTCHAR amacron
ENCODING 257
SWIDTH 888 0
DWIDTH 14 0
BBX 12 13 1 0
BITMAP
00FF40
000000
06FF90
250068
000009
000005
006AFE
1BA506
740006
C00006
C0000A
B401BE
1BFE46
ENDCHAR
STARTCHAR Abreve
ENCODING 258
SWIDTH 812 0
DWIDTH 13 0
BBX 13 14 0 0
BITMAP
00D1C000
006E4000
00000000
001D0000
00270000
00624000
0090C000
01809000
03003000
06002400
0FFFFC00
18000900
30000300
60000240
ENDCHAR
STARTCHAR abreve
ENCODING 259
SWIDTH 888 0
DWIDTH 14 0
BBX 12 14 1 0
BITMAP
018280
00BE00
000000
06FF90
250068
000009
000005
006AFE
1BA506
740006
C00006
C0000A
B401BE
1BFE46
ENDCHAR
STARTCHAR Aogonek
ENCODING 260
SWIDTH 812 0
DWIDTH 13 0
BBX 14 14 0 -3
BITMAP
001D0000
00270000
00624000
0090C000
01809000
03003000
06002400
0FFFFC00
18000900
30000300
60000240
00000200
00000900
000007E0
ENDCHAR
STARTCHAR aogonek
ENCODING 261
SWIDTH 888 0
DWIDTH 14 0
BBX 13 14 1 -3
BITMAP
06FF9000
25006800
00000900
00000500
006AFE00
1BA50600
74000600
C0000600
C0000A00
B401BE00
1BFE4600
00001800
00002400
00001F80
ENDCHAR
STARTCHAR Cacute
ENCODING 262
SWIDTH 869 0
DWIDTH 14 0
BBX 12 14 1 0
BITMAP
000190
000900
000000
01BFE4
0E401A
340000
A00000
900000
C00000
900000
A00000
340000
1E4016
01BFE4
ENDCHAR
STARTCHAR cacute
ENCODING 263
SWIDTH 869 0
DWIDTH 14 0
BBX 12 14 1 0
BITMAP
000190
000A00
000000
01BFE4
0E401A
340000
A00000
900000
C00000
900000
A00000
340000
1E4016
01BFE4
ENDCHAR
STARTCHAR Ccircumflex
ENCODING 264
SWIDTH 869 0
DWIDTH 14 0
BBX 12 14 1 0
BITMAP
001E40
00A190
000000
01BFE4
0E401A
340000
A00000
900000
C00000
900000
A00000
340000
1E4016
01BFE4
ENDCHAR
STARTCHAR ccircumflex
ENCODING 265
SWIDTH 869 0
DWIDTH 14 0
BBX 12 14 1 0
BITMAP
001A40
00A1A0
000000
01BFE4
0E401A
340000
A00000
900000
C00000
900000
A00000
340000
1E4016
01BFE4
ENDCHAR
STARTCHAR Cdotaccent
ENCODING 266
SWIDTH 869 0
DWIDTH 14 0
BBX 12 13 1 0
BITMAP
000900
000000
01BFE4
0E401A
340000
A00000
900000
C00000
900000
A00000
340000
1E4016
01BFE4
ENDCHAR
STARTCHAR cdotaccent
ENCODING 267
SWIDTH 869 0
DWIDTH 14 0
BBX 12 13 1 0
BITMAP
000900
000000
01BFE4
0E401A
340000
A00000
900000
C00000
900000
A00000
340000
1E4016
01BFE4
ENDCHAR
STARTCHAR Ccaron
ENCODING 268
SWIDTH 869 0
DWIDTH 14 0
BBX 12 14 1 0
BITMAP
009190
001E40
000000
01BFE4
0E401A
340000
A00000
900000
C00000
900000
A00000
340000
1E4016
01BFE4
ENDCHAR
STARTCHAR ccaron
ENCODING 269
SWIDTH 869 0
DWIDTH 14 0
BBX 12 14 1 0
BITMAP
00A1A0
001A40
000000
01BFE4
0E401A
340000
A00000
900000
C00000
900000
A00000
340000
1E4016
01BFE4
ENDCHAR
STARTCHAR Dcaron
ENCODING 270
SWIDTH 910 0
DWIDTH 15 0
BBX 13 14 1 0
BITMAP
0A4A0000
01A40000
00000000
7FFF9000
60006D00
60000700
60000340
60000240
60000280
60000240
60000240
60000600
60006C00
7FFF9000
ENDCHAR
STARTCHAR dcaron
ENCODING 271
SWIDTH 910 0
DWIDTH 15 0
BBX 13 14 1 0
BITMAP
0A4A0000
01A40000
00000000
7FFF9000
60006D00
60000700
60000340
60000240
60000280
60000240
60000240
60000600
60006C00
7FFF9000
ENDCHAR
STARTCHAR Dcroat
ENCODING 272
SWIDTH 910 0
DWIDTH 15 0
BBX 14 11 0 0
BITMAP
1FFFE400
18001B40
180002C0
180000D0
18000090
BFFD00A0
18000090
180000D0
180001C0
18001B00
1FFFE400
ENDCHAR
STARTCHAR dcroat
ENCODING 273
SWIDTH 910 0
DWIDTH 15 0
BBX 14 11 0 0
BITMAP
1FFFE400
18001B40
180002C0
180000D0
18000090
BFFD00A0
18000090
180000D0
180001C0
18001B00
1FFFE400
ENDCHAR
STARTCHAR Emacron
ENCODING 274
SWIDTH 754 0
DWIDTH 12 0
BBX 10 13 1 0
BITMAP
03FD00
000000
7FFFE0
700000
700000
700000
700000
7FFFD0
700000
700000
700000
700000
7FFFF0
ENDCHAR
STARTCHAR emacron
ENCODING 275
SWIDTH 910 0
DWIDTH 15 0
BBX 13 13 1 0
BITMAP
00BF4000
00000000
01BF9000
1E406800
34000600
A0000200
90000240
FFFFFF40
C0000000
A0000000
34000000
1E401A00
01BFE400
ENDCHAR
STARTCHAR Ebreve
ENCODING 276
SWIDTH 754 0
DWIDTH 12 0
BBX 10 14 1 0
BITMAP
060600
01F800
000000
7FFFE0
700000
700000
700000
700000
7FFFD0
700000
700000
700000
700000
7FFFF0
ENDCHAR
STARTCHAR ebreve
ENCODING 277
SWIDTH 910 0
DWIDTH 15 0
BBX 13 14 1 0
BITMAP
01818000
007E0000
00000000
01BF9000
1E406800
34000600
A0000200
90000240
FFFFFF40
C0000000
A0000000
34000000
1E401A00
01BFE400
ENDCHAR
STARTCHAR Edotaccent
ENCODING 278
SWIDTH 754 0
DWIDTH 12 0
BBX 10 13 1 0
BITMAP
006000
000000
7FFFE0
700000
700000
700000
700000
7FFFD0
700000
700000
700000
700000
7FFFF0
ENDCHAR
STARTCHAR edotaccent
ENCODING 279
SWIDTH 910 0
DWIDTH 15 0
BBX 13 13 1 0
BITMAP
001C0000
00000000
01BF9000
1E406800
34000600
A0000200
90000240
FFFFFF40
C0000000
A0000000
34000000
1E401A00
01BFE400
ENDCHAR
STARTCHAR Eogonek
ENCODING 280
SWIDTH 754 0
DWIDTH 12 0
BBX 10 14 1 -3
BITMAP
7FFFE0
700000
700000
700000
700000
7FFFD0
700000
700000
700000
700000
7FFFF0
000240
000900
0007F0
ENDCHAR
STARTCHAR eogonek
ENCODING 281
SWIDTH 910 0
DWIDTH 15 0
BBX 13 14 1 -3
BITMAP
01BF9000
1E406800
34000600
A0000200
90000240
FFFFFF40
C0000000
A0000000
34000000
1E401A00
01BFF800
00002000
00003000
00002F40
ENDCHAR
STARTCHAR Ecaron
ENCODING 282
SWIDTH 754 0
DWIDTH 12 0
BBX 10 14 1 0
BITMAP
064600
01B400
000000
7FFFE0
700000
700000
700000
700000
7FFFD0
700000
700000
700000
700000
7FFFF0
ENDCHAR
STARTCHAR ecaron
ENCODING 283
SWIDTH 910 0
DWIDTH 15 0
BBX 13 14 1 0
BITMAP
01918000
002D0000
00000000
01BF9000
1E406800
34000600
A0000200
90000240
FFFFFF40
C0000000
A0000000
34000000
1E401A00
01BFE400
ENDCHAR
STARTCHAR Gcircumflex
ENCODING 284
SWIDTH 910 0
DWIDTH 15 0
BBX 13 14 1 0
BITMAP
001A4000
00A5A000
00000000
01BFE900
0A401600
34000000
A0000000
90000000
C0000000
9003FF40
A0000240
34000240
1E400640
01BFF900
ENDCHAR
STARTCHAR gcircumflex
ENCODING 285
SWIDTH 910 0
DWIDTH 15 0
BBX 13 14 1 0
BITMAP
001A4000
00A5A000
00000000
01BFE900
0A401600
34000000
A0000000
90000000
C0000000
9003FF40
A0000240
34000240
1E400640
01BFF900
ENDCHAR
STARTCHAR Gbreve
ENCODING 286
SWIDTH 910 0
DWIDTH 15 0
BBX 13 14 1 0
BITMAP
00A09000
002F8000
00000000
01BFE900
0A401600
34000000
A0000000
90000000
C0000000
9003FF40
A0000240
34000240
1E400640
01BFF900
ENDCHAR
STARTCHAR gbreve
ENCODING 287
SWIDTH 910 0
DWIDTH 15 0
BBX 13 14 1 0
BITMAP
00A09000
002F8000
00000000
01BFE900
0A401600
34000000
A0000000
90000000
C0000000
9003FF40
A0000240
34000240
1E400640
01BFF900
ENDCHAR
STARTCHAR Gdotaccent
ENCODING 288
SWIDTH 910 0
DWIDTH 15 0
BBX 13 13 1 0
BITMAP
000A0000
00000000
01BFE900
0A401600
34000000
A0000000
90000000
C0000000
9003FF40
A0000240
34000240
1E400640
01BFF900
ENDCHAR
STARTCHAR gdotaccent
ENCODING 289
SWIDTH 910 0
DWIDTH 15 0
BBX 13 13 1 0
BITMAP
000A0000
00000000
01BFE900
0A401600
34000000
A0000000
90000000
C0000000
9003FF40
A0000240
34000240
1E400640
01BFF900
ENDCHAR
STARTCHAR Gcommaaccent
ENCODING 290
SWIDTH 910 0
DWIDTH 15 0
BBX 13 14 1 -3
BITMAP
01BFE900
0A401600
34000000
A0000000
90000000
C0000000
9003FF40
A0000240
34000240
1E400640
01BFF900
00000000
00060000
00090000
ENDCHAR
STARTCHAR gcommaaccent
ENCODING 291
SWIDTH 910 0
DWIDTH 15 0
BBX 13 14 1 -3
BITMAP
01BFE900
0A401600
34000000
A0000000
90000000
C0000000
9003FF40
A0000240
34000240
1E400640
01BFF900
00000000
00060000
00090000
ENDCHAR
STARTCHAR Hcircumflex
ENCODING 292
SWIDTH 949 0
DWIDTH 15 0
BBX 13 14 1 0
BITMAP
001E0000
01919000
00000000
60000240
60000240
60000240
60000240
60000240
7FFFFF40
60000240
60000240
60000240
60000240
60000240
ENDCHAR
STARTCHAR hcircumflex
ENCODING 293
SWIDTH 949 0
DWIDTH 15 0
BBX 13 14 1 0
BITMAP
001E0000
01919000
00000000
60000240
60000240
60000240
60000240
60000240
7FFFFF40
60000240
60000240
60000240
60000240
60000240
ENDCHAR
STARTCHAR Hbar
ENCODING 294
SWIDTH 949 0
DWIDTH 15 0
BBX 15 11 0 0
BITMAP
18000090
18000090
BFFFFFF8
18000090
18000090
1FFFFFD0
18000090
18000090
18000090
18000090
18000090
ENDCHAR
STARTCHAR hbar
ENCODING 295
SWIDTH 949 0
DWIDTH 15 0
BBX 15 11 0 0
BITMAP
18000090
18000090
BFFFFFF8
18000090
18000090
1FFFFFD0
18000090
18000090
18000090
18000090
18000090
ENDCHAR
STARTCHAR Itilde
ENCODING 296
SWIDTH 287 0
DWIDTH 5 0
BBX 6 14 -1 0
BITMAP
2D20
56E0
0000
0600
0600
0600
0600
0600
0600
0600
0600
0600
0600
0600
ENDCHAR
STARTCHAR itilde
ENCODING 297
SWIDTH 287 0
DWIDTH 5 0
BBX 6 14 -1 0
BITMAP
2D20
52E0
0000
0600
0600
0600
0600
0600
0600
0600
0600
0600
0600
0600
ENDCHAR
STARTCHAR Imacron
ENCODING 298
SWIDTH 287 0
DWIDTH 5 0
BBX 5 13 0 0
BITMAP
FF40
0000
1800
1800
1800
1800
1800
1800
1800
1800
1800
1800
1800
ENDCHAR
STARTCHAR imacron
ENCODING 299
SWIDTH 287 0
DWIDTH 5 0
BBX 5 13 0 0
BITMAP
FF40
0000
1800
1800
1800
1800
1800
1800
1800
1800
1800
1800
1800
ENDCHAR
STARTCHAR Ibreve
ENCODING 300
SWIDTH 287 0
DWIDTH 5 0
BBX 6 14 -1 0
BITMAP
6060
1F80
0000
0600
0600
0600
0600
0600
0600
0600
0600
0600
0600
0600
ENDCHAR
STARTCHAR ibreve
ENCODING 301
SWIDTH 287 0
DWIDTH 5 0
BBX 6 14 -1 0
BITMAP
6060
1F80
0000
0600
0600
0600
0600
0600
0600
0600
0600
0600
0600
0600
ENDCHAR
STARTCHAR Iogonek
ENCODING 302
SWIDTH 287 0
DWIDTH 5 0
BBX 4 14 0 -3
BITMAP
18
18
18
18
18
18
18
18
18
18
18
20
90
7E
ENDCHAR
STARTCHAR iogonek
ENCODING 303
SWIDTH 287 0
DWIDTH 5 0
BBX 4 14 0 -3
BITMAP
18
18
18
18
18
18
18
18
18
18
18
20
90
7E
ENDCHAR
STARTCHAR Idotaccent
ENCODING 304
SWIDTH 287 0
DWIDTH 5 0
BBX 2 13 1 0
BITMAP
70
00
60
60
60
60
60
60
60
60
60
60
60
ENDCHAR
STARTCHAR dotlessi
ENCODING 305
SWIDTH 287 0
DWIDTH 5 0
BBX 2 11 1 0
BITMAP
60
60
60
60
60
60
60
60
60
60
60
ENDCHAR
STARTCHAR IJ
ENCODING 306
SWIDTH 877 0
DWIDTH 14 0
BBX 12 11 1 0
BITMAP
600009
600009
600009
600009
600009
600009
600009
600009
60000C
619068
606F90
ENDCHAR
STARTCHAR ij
ENCODING 307
SWIDTH 877 0
DWIDTH 14 0
BBX 12 11 1 0
BITMAP
600009
600009
600009
600009
600009
600009
600009
600009
60000C
619068
606F90
ENDCHAR
STARTCHAR Jcircumflex
ENCODING 308
SWIDTH 590 0
DWIDTH 9 0
BBX 10 14 0 0
BITMAP
001B40
006460
000000
000600
000600
000600
000600
000600
000600
000600
000600
000A00
902C00
6FE000
ENDCHAR
STARTCHAR jcircumflex
ENCODING 309
SWIDTH 590 0
DWIDTH 9 0
BBX 10 14 0 0
BITMAP
001B40
006460
000000
000600
000600
000600
000600
000600
000600
000600
000600
000A00
902C00
6FE000
ENDCHAR
STARTCHAR Kcommaaccent
ENCODING 310
SWIDTH 806 0
DWIDTH 13 0
BBX 11 14 1 -3
BITMAP
600064
600280
601900
60A000
674000
7E0000
62D000
607800
600A40
6001D0
600028
000000
003000
006000
ENDCHAR
STARTCHAR kcommaaccent
ENCODING 311
SWIDTH 867 0
DWIDTH 14 0
BBX 12 14 1 -3
BITMAP
60000C
600018
600034
6001D0
601A40
7FF900
601690
600074
60001C
60000A
600006
000000
002400
002000
ENDCHAR
STARTCHAR kgreenlandic
ENCODING 312
SWIDTH 867 0
DWIDTH 14 0
BBX 12 11 1 0
BITMAP
60000C
600018
600034
6001D0
601A40
7FF900
601690
600074
60001C
60000A
600006
ENDCHAR
STARTCHAR Lacute
ENCODING 313
SWIDTH 701 0
DWIDTH 11 0
BBX 10 14 1 0
BITMAP
060000
640000
000000
600000
600000
600000
600000
600000
600000
600000
600000
600000
600000
7FFFE0
ENDCHAR
STARTCHAR lacute
ENCODING 314
SWIDTH 709 0
DWIDTH 11 0
BBX 11 14 1 0
BITMAP
060000
640000
000000
600000
600000
600000
600000
600000
600000
600000
200000
300000
290000
0BFFF4
ENDCHAR
STARTCHAR Lcommaaccent
ENCODING 315
SWIDTH 701 0
DWIDTH 11 0
BBX 10 14 1 -3
BITMAP
600000
600000
600000
600000
600000
600000
600000
600000
600000
600000
7FFFE0
000000
007000
006000
ENDCHAR
STARTCHAR lcommaaccent
ENCODING 316
SWIDTH 709 0
DWIDTH 11 0
BBX 11 14 1 -3
BITMAP
600000
600000
600000
600000
600000
600000
600000
200000
300000
290000
0BFFF4
000000
003400
003000
ENDCHAR
STARTCHAR Lcaron
ENCODING 317
SWIDTH 701 0
DWIDTH 11 0
BBX 10 11 1 0
BITMAP
600900
600800
600800
600000
600000
600000
600000
600000
600000
600000
7FFFE0
ENDCHAR
STARTCHAR lcaron
ENCODING 318
SWIDTH 709 0
DWIDTH 11 0
BBX 11 11 1 0
BITMAP
600900
600800
600800
600000
600000
600000
600000
200000
300000
290000
0BFFF4
ENDCHAR
STARTCHAR Ldot
ENCODING 319
SWIDTH 701 0
DWIDTH 11 0
BBX 10 11 1 0
BITMAP
600000
600000
600000
600000
600A00
600A00
600000
600000
600000
600000
7FFFE0
ENDCHAR
STARTCHAR ldotaccent
ENCODING 320
SWIDTH 709 0
DWIDTH 11 0
BBX 11 11 1 0
BITMAP
600000
600000
600000
600000
600A00
600A00
600000
200000
300000
290000
0BFFF4
ENDCHAR
STARTCHAR Lslash
ENCODING 321
SWIDTH 701 0
DWIDTH 11 0
BBX 11 11 0 0
BITMAP
180000
180000
180000
180000
18A000
1E4000
A80000
180000
180000
180000
1FFFF8
ENDCHAR
STARTCHAR lslash
ENCODING 322
SWIDTH 709 0
DWIDTH 11 0
BBX 12 11 0 0
BITMAP
180000
180000
180000
180000
18A000
1E4000
A80000
180000
0C0000
0A4000
02FFFD
ENDCHAR
STARTCHAR Nacute
ENCODING 323
SWIDTH 936 0
DWIDTH 15 0
BBX 13 14 1 0
BITMAP
00018000
00190000
00000000
74000240
7D000240
63400240
61D00240
60740240
601D0240
60074240
6001C240
60007240
60001F40
60000740
ENDCHAR
STARTCHAR nacute
ENCODING 324
SWIDTH 933 0
DWIDTH 15 0
BBX 13 14 1 0
BITMAP
00018000
00190000
00000000
606FE400
66901A00
79000300
70000300
60000240
60000240
60000240
60000240
60000240
60000240
60000240
ENDCHAR
STARTCHAR Ncommaaccent
ENCODING 325
SWIDTH 936 0
DWIDTH 15 0
BBX 13 14 1 -3
BITMAP
74000240
7D000240
63400240
61D00240
60740240
601D0240
60074240
6001C240
60007240
60001F40
60000740
00000000
000C0000
00080000
ENDCHAR
STARTCHAR ncommaaccent
ENCODING 326
SWIDTH 933 0
DWIDTH 15 0
BBX 13 14 1 -3
BITMAP
606FE400
66901A00
79000300
70000300
60000240
60000240
60000240
60000240
60000240
60000240
60000240
00000000
000C0000
00180000
ENDCHAR
STARTCHAR Ncaron
ENCODING 327
SWIDTH 936 0
DWIDTH 15 0
BBX 13 14 1 0
BITMAP
01919000
002E0000
00000000
74000240
7D000240
63400240
61D00240
60740240
601D0240
60074240
6001C240
60007240
60001F40
60000740
ENDCHAR
STARTCHAR ncaron
ENCODING 328
SWIDTH 933 0
DWIDTH 15 0
BBX 13 14 1 0
BITMAP
01918000
002D0000
00000000
606FE400
66901A00
79000300
70000300
60000240
60000240
60000240
60000240
60000240
60000240
60000240
ENDCHAR
STARTCHAR napostrophe
ENCODING 329
SWIDTH 1025 0
DWIDTH 16 0
BBX 15 11 0 0
BITMAP
A241BF80
926E40B0
82D00024
02400018
02400018
02400018
02400018
02400018
02400018
02400018
02400018
ENDCHAR
STARTCHAR Eng
ENCODING 330
SWIDTH 936 0
DWIDTH 15 0
BBX 13 11 1 0
BITMAP
78000240
6A000240
61D00240
60740240
600A0240
60018240
60007640
60000B00
60000300
60241A00
601BF400
ENDCHAR
STARTCHAR eng
ENCODING 331
SWIDTH 933 0
DWIDTH 15 0
BBX 13 11 1 0
BITMAP
606FE400
66901A00
79000300
70000200
60000240
60000240
60000240
60000200
60000300
60241A00
600BF400
ENDCHAR
STARTCHAR Omacron
ENCODING 332
SWIDTH 983 0
DWIDTH 16 0
BBX 14 13 1 0
BITMAP
007FC000
00000000
01BFE400
1E401A00
34000180
A0000090
90000060
C0000060
D0000060
A0000090
34000180
1E401A00
01BFE400
ENDCHAR
STARTCHAR omacron
ENCODING 333
SWIDTH 983 0
DWIDTH 16 0
BBX 14 13 1 0
BITMAP
007FC000
00000000
01BFE400
1E401A00
34000180
A0000090
90000060
C0000060
D0000060
A0000090
34000180
1E401A00
01BFE400
ENDCHAR
STARTCHAR Obreve
ENCODING 334
SWIDTH 983 0
DWIDTH 16 0
BBX 14 14 1 0
BITMAP
00A09000
002F8000
00000000
01BFE400
1E401A00
34000180
A0000090
90000060
C0000060
D0000060
A0000090
34000180
1E401A00
01BFE400
ENDCHAR
STARTCHAR obreve
ENCODING 335
SWIDTH 983 0
DWIDTH 16 0
BBX 14 14 1 0
BITMAP
00A09000
002F8000
00000000
01BFE400
1E401A00
34000180
A0000090
90000060
C0000060
D0000060
A0000090
34000180
1E401A00
01BFE400
ENDCHAR
STARTCHAR Ohungarumlaut
ENCODING 336
SWIDTH 983 0
DWIDTH 16 0
BBX 14 14 1 0
BITMAP
00096000
00258000
00000000
01BFE400
1E401A00
34000180
A0000090
90000060
C0000060
D0000060
A0000090
34000180
1E401A00
01BFE400
ENDCHAR
STARTCHAR ohungarumlaut
ENCODING 337
SWIDTH 983 0
DWIDTH 16 0
BBX 14 14 1 0
BITMAP
00096000
00258000
00000000
01BFE400
1E401A00
34000180
A0000090
90000060
C0000060
D0000060
A0000090
34000180
1E401A00
01BFE400
ENDCHAR
STARTCHAR OE
ENCODING 338
SWIDTH 1338 0
DWIDTH 21 0
BBX 20 11 1 0
BITMAP
01BFFFFFFC
1E401D0000
34000D0000
A0000D0000
90000D0000
C0000FFFF8
D0000D0000
A0000D0000
34000D0000
1E401D0000
01BFFFFFFD
ENDCHAR
STARTCHAR oe
ENCODING 339
SWIDTH 1688 0
DWIDTH 27 0
BBX 25 11 1 0
BITMAP
01BFE400AFE400
1E401A07401D00
340001DC000240
A00000B4000180
900000600000C0
C000007FFFFFC0
D0000060000000
A00000B0000000
34000198000000
1E401A07900640
01BFE400AFF900
ENDCHAR
STARTCHAR Racute
ENCODING 340
SWIDTH 833 0
DWIDTH 13 0
BBX 12 14 1 0
BITMAP
000A00
00A400
000000
7FFF90
600074
600018
600018
600074
7FFF90
600280
6000D0
600070
600028
600009
ENDCHAR
STARTCHAR racute
ENCODING 341
SWIDTH 609 0
DWIDTH 10 0
BBX 9 14 1 0
BITMAP
001800
019000
000000
606F80
669000
790000
700000
600000
600000
600000
600000
600000
600000
600000
ENDCHAR
STARTCHAR Rcommaaccent
ENCODING 342
SWIDTH 833 0
DWIDTH 13 0
BBX 12 14 1 -3
BITMAP
7FFF90
600074
600018
600018
600074
7FFF90
600280
6000D0
600070
600028
600009
000000
002400
003000
ENDCHAR
STARTCHAR rcommaaccent
ENCODING 343
SWIDTH 609 0
DWIDTH 10 0
BBX 9 14 1 -3
BITMAP
606F80
669000
790000
700000
600000
600000
600000
600000
600000
600000
600000
000000
700000
600000
ENDCHAR
STARTCHAR Rcaron
ENCODING 344
SWIDTH 833 0
DWIDTH 13 0
BBX 12 14 1 0
BITMAP
0A5A00
01A400
000000
7FFF90
600074
600018
600018
600074
7FFF90
600280
6000D0
600070
600028
600009
ENDCHAR
STARTCHAR rcaron
ENCODING 345
SWIDTH 609 0
DWIDTH 10 0
BBX 9 14 1 0
BITMAP
191800
02D000
000000
606F80
669000
790000
700000
600000
600000
600000
600000
600000
600000
600000
ENDCHAR
STARTCHAR Sacute
ENCODING 346
SWIDTH 787 0
DWIDTH 13 0
BBX 11 14 1 0
BITMAP
000A00
006400
000000
1BFE40
740190
900000
600000
2E4000
01B900
000190
000024
000024
A401A0
1BFE40
ENDCHAR
STARTCHAR sacute
ENCODING 347
SWIDTH 787 0
DWIDTH 13 0
BBX 11 14 1 0
BITMAP
000A00
006400
000000
1BFE40
740190
900000
600000
2E4000
01B900
000190
000024
000024
A401A0
1BFE40
ENDCHAR
STARTCHAR Scircumflex
ENCODING 348
SWIDTH 787 0
DWIDTH 13 0
BBX 11 14 1 0
BITMAP
01B400
064600
000000
1BFE40
740190
900000
600000
2E4000
01B900
000190
000024
000024
A401A0
1BFE40
ENDCHAR
STARTCHAR scircumflex
ENCODING 349
SWIDTH 787 0
DWIDTH 13 0
BBX 11 14 1 0
BITMAP
01B400
064600
000000
1BFE40
740190
900000
600000
2E4000
01B900
000190
000024
000024
A401A0
1BFE40
ENDCHAR
STARTCHAR Scedilla
ENCODING 350
SWIDTH 787 0
DWIDTH 13 0
BBX 11 14 1 -3
BITMAP
1BFE40
740190
900000
600000
2E4000
01B900
0001D0
000034
000024
A401A0
1BFE40
007800
000C00
02F800
ENDCHAR
STARTCHAR scedilla
ENCODING 351
SWIDTH 787 0
DWIDTH 13 0
BBX 11 14 1 -3
BITMAP
1BFE40
740190
900000
600000
2E4000
01B900
0001D0
000034
000024
A401A0
1BFE40
007800
000C00
02F800
ENDCHAR
STARTCHAR Scaron
ENCODING 352
SWIDTH 787 0
DWIDTH 13 0
BBX 11 14 1 0
BITMAP
064600
01B400
000000
1BFE40
740190
900000
600000
2E4000
01B900
000190
000024
000024
A401A0
1BFE40
ENDCHAR
STARTCHAR scaron
ENCODING 353
SWIDTH 787 0
DWIDTH 13 0
BBX 11 14 1 0
BITMAP
064600
01B400
000000
1BFE40
740190
900000
600000
2E4000
01B900
000190
000024
000024
A401A0
1BFE40
ENDCHAR
STARTCHAR Tcommaaccent
ENCODING 354
SWIDTH 708 0
DWIDTH 11 0
BBX 11 14 0 -3
BITMAP
BFFFFC
002000
002000
002000
002000
002000
002000
002000
002000
002000
002000
000000
002400
003000
ENDCHAR
STARTCHAR tcommaaccent
ENCODING 355
SWIDTH 708 0
DWIDTH 11 0
BBX 11 14 0 -3
BITMAP
BFFFFC
002000
002000
002000
002000
002000
002000
002000
002000
002000
002000
000000
002400
003000
ENDCHAR
STARTCHAR Tcaron
ENCODING 356
SWIDTH 708 0
DWIDTH 11 0
BBX 11 14 0 0
BITMAP
024640
007800
000000
BFFFFC
002000
002000
002000
002000
002000
002000
002000
002000
002000
002000
ENDCHAR
STARTCHAR tcaron
ENCODING 357
SWIDTH 708 0
DWIDTH 11 0
BBX 11 14 0 0
BITMAP
024640
007800
000000
BFFFFC
002000
002000
002000
002000
002000
002000
002000
002000
002000
002000
ENDCHAR
STARTCHAR Tbar
ENCODING 358
SWIDTH 708 0
DWIDTH 11 0
BBX 11 11 0 0
BITMAP
BFFFFC
002000
002000
002000
2FFFF0
002000
002000
002000
002000
002000
002000
ENDCHAR
STARTCHAR tbar
ENCODING 359
SWIDTH 708 0
DWIDTH 11 0
BBX 11 11 0 0
BITMAP
BFFFFC
002000
002000
002000
2FFFF0
002000
002000
002000
002000
002000
002000
ENDCHAR
STARTCHAR Utilde
ENCODING 360
SWIDTH 891 0
DWIDTH 14 0
BBX 12 14 1 0
BITMAP
00E480
025B40
000000
600006
600006
600006
600006
600006
600006
600006
600006
300009
1D0068
06FF90
ENDCHAR
STARTCHAR utilde
ENCODING 361
SWIDTH 931 0
DWIDTH 15 0
BBX 12 14 1 0
BITMAP
00B480
018B80
000000
600003
600003
600003
600003
600003
600003
600003
600003
30001F
2901A7
06FE43
ENDCHAR
STARTCHAR Umacron
ENCODING 362
SWIDTH 891 0
DWIDTH 14 0
BBX 12 13 1 0
BITMAP
00FF40
000000
600006
600006
600006
600006
600006
600006
600006
600006
300009
1D0068
06FF90
ENDCHAR
STARTCHAR umacron
ENCODING 363
SWIDTH 931 0
DWIDTH 15 0
BBX 12 13 1 0
BITMAP
00BF80
000000
600003
600003
600003
600003
600003
600003
600003
600003
30001F
2901A7
06FE43
ENDCHAR
STARTCHAR Ubreve
ENCODING 364
SWIDTH 891 0
DWIDTH 14 0
BBX 12 14 1 0
BITMAP
018180
00BE00
000000
600006
600006
600006
600006
600006
600006
600006
600006
300009
1D0068
06FF90
ENDCHAR
STARTCHAR ubreve
ENCODING 365
SWIDTH 931 0
DWIDTH 15 0
BBX 12 14 1 0
BITMAP
00D1C0
007E40
000000
600003
600003
600003
600003
600003
600003
600003
600003
30001F
2901A7
06FE43
ENDCHAR
STARTCHAR Uring
ENCODING 366
SWIDTH 891 0
DWIDTH 14 0
BBX 12 15 1 0
BITMAP
007E00
009200
007E00
000000
600006
600006
600006
600006
600006
600006
600006
600006
300009
1D0068
06FF90
ENDCHAR
STARTCHAR uring
ENCODING 367
SWIDTH 931 0
DWIDTH 15 0
BBX 12 15 1 0
BITMAP
006E00
009240
007E00
000000
600003
600003
600003
600003
600003
600003
600003
600003
30001F
2901A7
06FE43
ENDCHAR
STARTCHAR Uhungarumlaut
ENCODING 368
SWIDTH 891 0
DWIDTH 14 0
BBX 12 14 1 0
BITMAP
002490
009240
000000
600006
600006
600006
600006
600006
600006
600006
600006
300009
1D0068
06FF90
ENDCHAR
STARTCHAR uhungarumlaut
ENCODING 369
SWIDTH 931 0
DWIDTH 15 0
BBX 12 14 1 0
BITMAP
001890
006240
000000
600003
600003
600003
600003
600003
600003
600003
600003
30001F
2901A7
06FE43
ENDCHAR
STARTCHAR Uogonek
ENCODING 370
SWIDTH 891 0
DWIDTH 14 0
BBX 12 14 1 -3
BITMAP
600006
600006
600006
600006
600006
600006
600006
600006
300009
1D0068
06FF90
002000
006000
002F00
ENDCHAR
STARTCHAR uogonek
ENCODING 371
SWIDTH 931 0
DWIDTH 15 0
BBX 13 14 1 -3
BITMAP
60000300
60000300
60000300
60000300
60000300
60000300
60000300
60000300
30001F00
2901A700
06FE4300
00000900
00001800
00000BC0
ENDCHAR
STARTCHAR Wcircumflex
ENCODING 372
SWIDTH 1266 0
DWIDTH 20 0
BBX 20 14 0 0
BITMAP
0000690000
0002968000
0000000000
70002C0009
240039000C
1800660018
0C00D30024
0901824070
060241C0A0
03430090C0
0186006180
00C9003240
009C002700
0078001E00
ENDCHAR
STARTCHAR wcircumflex
ENCODING 373
SWIDTH 1266 0
DWIDTH 20 0
BBX 20 14 0 0
BITMAP
0000690000
0002968000
0000000000
70002C0009
240039000C
1800660018
0C00D30024
0901824070
060241C0A0
03430090C0
0186006180
00C9003240
009C002700
0078001E00
ENDCHAR
STARTCHAR Ycircumflex
ENCODING 374
SWIDTH 763 0
DWIDTH 12 0
BBX 11 14 1 0
BITMAP
01A400
0A5A00
000000
D00034
700090
180280
0A0600
024C00
00E400
006000
006000
006000
006000
006000
ENDCHAR
STARTCHAR ycircumflex
ENCODING 375
SWIDTH 911 0
DWIDTH 15 0
BBX 12 14 1 0
BITMAP
006900
029680
000000
900006
900006
900006
600006
70001E
2D01A6
06FE46
000006
00000D
6401B8
1BFE90
ENDCHAR
STARTCHAR Ydieresis
ENCODING 376
SWIDTH 763 0
DWIDTH 12 0
BBX 11 13 1 0
BITMAP
030D00
000000
D00034
700090
180280
0A0600
024C00
00E400
006000
006000
006000
006000
006000
ENDCHAR
STARTCHAR Zacute
ENCODING 377
SWIDTH 728 0
DWIDTH 12 0
BBX 10 14 1 0
BITMAP
001900
00A400
000000
BFFFD0
000180
000600
001C00
003400
009000
024000
0A0000
180000
600000
FFFFE0
ENDCHAR
STARTCHAR zacute
ENCODING 378
SWIDTH 728 0
DWIDTH 12 0
BBX 10 14 1 0
BITMAP
001900
00A400
000000
BFFFD0
000180
000600
001C00
003400
009000
024000
0A0000
180000
600000
FFFFE0
ENDCHAR
STARTCHAR Zdotaccent
ENCODING 379
SWIDTH 728 0
DWIDTH 12 0
BBX 10 13 1 0
BITMAP
00A000
000000
BFFFD0
000180
000600
001C00
003400
009000
024000
0A0000
180000
600000
FFFFE0
ENDCHAR
STARTCHAR zdotaccent
ENCODING 380
SWIDTH 728 0
DWIDTH 12 0
BBX 10 13 1 0
BITMAP
00A000
000000
BFFFD0
000180
000600
001C00
003400
009000
024000
0A0000
180000
600000
FFFFE0
ENDCHAR
STARTCHAR Zcaron
ENCODING 381
SWIDTH 728 0
DWIDTH 12 0
BBX 10 14 1 0
BITMAP
0A5A00
01A400
000000
BFFFD0
000180
000600
001C00
003400
009000
024000
0A0000
180000
600000
FFFFE0
ENDCHAR
STARTCHAR zcaron
ENCODING 382
SWIDTH 728 0
DWIDTH 12 0
BBX 10 14 1 0
BITMAP
0A5A00
01A400
000000
BFFFD0
000180
000600
001C00
003400
009000
024000
0A0000
180000
600000
FFFFE0
ENDCHAR
STARTCHAR florin
ENCODING 402
SWIDTH 835 0
DWIDTH 13 0
BBX 13 12 0 -1
BITMAP
00007FC0
0001D000
00024000
00030000
00BFF400
000A0000
00090000
000C0000
00180000
00240000
50A00000
2F800000
ENDCHAR
STARTCHAR AEacute
ENCODING 508
SWIDTH 1172 0
DWIDTH 19 0
BBX 18 14 0 0
BITMAP
0000006400
0000028000
0000000000
0003FFFFD0
0009A00000
0018A00000
0030A00000
0090A00000
0180BFFFC0
0300A00000
0BFFE00000
1800A00000
3400A00000
A000BFFFE0
ENDCHAR
STARTCHAR aeacute
ENCODING 509
SWIDTH 1551 0
DWIDTH 25 0
BBX 23 14 1 0
BITMAP
000000600000
000002400000
000000000000
06FF901BFA00
250068B406D0
00000A800030
000007000018
006AFE000008
1BA50BFFFFFC
740006000000
C00003000000
C00007800000
B401B9B50160
1BFE401AFE90
ENDCHAR
STARTCHAR Oslashacute
ENCODING 510
SWIDTH 983 0
DWIDTH 16 0
BBX 14 15 1 -1
BITMAP
00019000
000A0000
00000600
01BFEC00
1E402A00
34006180
A0008090
90024060
C0090060
90180060
A0200090
34900180
1E801A00
06BFE400
08000000
ENDCHAR
STARTCHAR oslashacute
ENCODING 511
SWIDTH 983 0
DWIDTH 16 0
BBX 14 15 1 -1
BITMAP
00019000
000A0000
00000600
01BFEC00
1E402A00
34006180
A0008090
90024060
C0090060
90180060
A0200090
34900180
1E801A00
06BFE400
08000000
ENDCHAR
STARTCHAR dotlessj
ENCODING 567
SWIDTH 590 0
DWIDTH 9 0
BBX 8 11 0 0
BITMAP
0006
0006
0006
0006
0006
0006
0006
0006
000A
902C
6FE0
ENDCHAR
STARTCHAR circumflex
ENCODING 710
SWIDTH 527 0
DWIDTH 8 0
BBX 6 2 1 9
BITMAP
1B40
6460
ENDCHAR
STARTCHAR caron
ENCODING 711
SWIDTH 527 0
DWIDTH 8 0
BBX 6 2 1 9
BITMAP
6460
1B40
ENDCHAR
STARTCHAR breve
ENCODING 728
SWIDTH 527 0
DWIDTH 8 0
BBX 6 2 1 9
BITMAP
6060
1F80
ENDCHAR
STARTCHAR dotaccent
ENCODING 729
SWIDTH 527 0
DWIDTH 8 0
BBX 2 1 3 9
BITMAP
60
ENDCHAR
STARTCHAR ring
ENCODING 730
SWIDTH 527 0
DWIDTH 8 0
BBX 5 3 2 9
BITMAP
7E00
9240
7E00
ENDCHAR
STARTCHAR ogonek
ENCODING 731
SWIDTH 527 0
DWIDTH 8 0
BBX 4 3 2 -3
BITMAP
24
50
7F
ENDCHAR
STARTCHAR tilde
ENCODING 732
SWIDTH 527 0
DWIDTH 8 0
BBX 6 2 1 9
BITMAP
3D20
56D0
ENDCHAR
STARTCHAR hungarumlaut
ENCODING 733
SWIDTH 527 0
DWIDTH 8 0
BBX 6 2 2 9
BITMAP
1490
9240
ENDCHAR
STARTCHAR commaaccent
ENCODING 806
SWIDTH 527 0
DWIDTH 8 0
BBX 2 2 3 -3
BITMAP
60
50
ENDCHAR
STARTCHAR mu
ENCODING 956
SWIDTH 705 0
DWIDTH 11 0
BBX 10 10 0 -3
BITMAP
090060
090090
0C0090
0800C0
1801C0
2D0A80
26E4C0
300000
200000
600000
ENDCHAR
STARTCHAR Wgrave
ENCODING 7808
SWIDTH 1266 0
DWIDTH 20 0
BBX 20 14 0 0
BITMAP
0001900000
0000280000
0000000000
70002C0009
240039000C
1800660018
0C00D30024
0901824070
060241C0A0
03430090C0
0186006180
00C9003240
009C002700
0078001E00
ENDCHAR
STARTCHAR wgrave
ENCODING 7809
SWIDTH 1266 0
DWIDTH 20 0
BBX 20 14 0 0
BITMAP
0001900000
0000280000
0000000000
70002C0009
240039000C
1800660018
0C00D30024
0901824070
060241C0A0
03430090C0
0186006180
00C9003240
009C002700
0078001E00
ENDCHAR
STARTCHAR Wacute
ENCODING 7810
SWIDTH 1266 0
DWIDTH 20 0
BBX 20 14 0 0
BITMAP
0000028000
0000190000
0000000000
70002C0009
240039000C
1800660018
0C00D30024
0901824070
060241C0A0
03430090C0
0186006180
00C9003240
009C002700
0078001E00
ENDCHAR
STARTCHAR wacute
ENCODING 7811
SWIDTH 1266 0
DWIDTH 20 0
BBX 20 14 0 0
BITMAP
0000028000
0000190000
0000000000
70002C0009
240039000C
1800660018
0C00D30024
0901824070
060241C0A0
03430090C0
0186006180
00C9003240
009C002700
0078001E00
ENDCHAR
STARTCHAR Wdieresis
ENCODING 7812
SWIDTH 1266 0
DWIDTH 20 0
BBX 20 13 0 0
BITMAP
0000C34000
0000000000
70002C0009
240039000C
1800660018
0C00D30024
0901824070
060241C0A0
03430090C0
0186006180
00C9003240
009C002700
0078001E00
ENDCHAR
STARTCHAR wdieresis
ENCODING 7813
SWIDTH 1266 0
DWIDTH 20 0
BBX 20 13 0 0
BITMAP
0000C34000
0000000000
70002C0009
240039000C
1800660018
0C00D30024
0901824070
060241C0A0
03430090C0
0186006180
00C9003240
009C002700
0078001E00
ENDCHAR
STARTCHAR Ygrave
ENCODING 7922
SWIDTH 763 0
DWIDTH 12 0
BBX 11 14 1 0
BITMAP
064000
00A000
000000
D00034
700090
180280
0A0600
024C00
00E400
006000
006000
006000
006000
006000
ENDCHAR
STARTCHAR ygrave
ENCODING 7923
SWIDTH 911 0
DWIDTH 15 0
BBX 12 14 1 0
BITMAP
019000
002800
000000
900006
900006
900006
600006
70001E
2D01A6
06FE46
000006
00000D
6401B8
1BFE90
ENDCHAR
STARTCHAR endash
ENCODING 8211
SWIDTH 419 0
DWIDTH 7 0
BBX 7 1 0 5
BITMAP
BFF4
ENDCHAR
STARTCHAR emdash
ENCODING 8212
SWIDTH 1000 0
DWIDTH 16 0
BBX 16 1 0 5
BITMAP
FFFFFFFF
ENDCHAR
STARTCHAR quoteleft
ENCODING 8216
SWIDTH 163 0
DWIDTH 3 0
BBX 2 3 0 8
BITMAP
20
30
60
ENDCHAR
STARTCHAR quoteright
ENCODING 8217
SWIDTH 163 0
DWIDTH 3 0
BBX 2 3 0 8
BITMAP
30
60
50
ENDCHAR
STARTCHAR quotesinglbase
ENCODING 8218
SWIDTH 163 0
DWIDTH 3 0
BBX 2 3 0 -2
BITMAP
30
60
50
ENDCHAR
STARTCHAR quotedblleft
ENCODING 8220
SWIDTH 303 0
DWIDTH 5 0
BBX 5 3 0 8
BITMAP
2240
3300
6300
ENDCHAR
STARTCHAR quotedblright
ENCODING 8221
SWIDTH 303 0
DWIDTH 5 0
BBX 5 3 0 8
BITMAP
3340
6300
5600
ENDCHAR
STARTCHAR quotedblbase
ENCODING 8222
SWIDTH 303 0
DWIDTH 5 0
BBX 5 3 0 -2
BITMAP
3340
6300
5600
ENDCHAR
STARTCHAR dagger
ENCODING 8224
SWIDTH 500 0
DWIDTH 8 0
BBX 6 11 1 0
BITMAP
0500
0500
0500
BFE0
0500
0500
0500
0500
0500
0500
0500
ENDCHAR
STARTCHAR daggerdbl
ENCODING 8225
SWIDTH 500 0
DWIDTH 8 0
BBX 6 11 1 0
BITMAP
0500
0500
0500
BFE0
0500
0500
BFE0
0500
0500
0500
0500
ENDCHAR
STARTCHAR bullet
ENCODING 8226
SWIDTH 352 0
DWIDTH 6 0
BBX 4 3 1 4
BITMAP
78
BD
78
ENDCHAR
STARTCHAR ellipsis
ENCODING 8230
SWIDTH 555 0
DWIDTH 9 0
BBX 8 2 0 0
BITMAP
71C7
71C7
ENDCHAR
STARTCHAR perthousand
ENCODING 8240
SWIDTH 1401 0
DWIDTH 22 0
BBX 21 11 1 0
BITMAP
2F8008000000
D0A024000000
803090000000
D0A180000000
2F8600000000
000900000000
00247E41BD00
006181C74640
018240960180
030181C74240
09007E41BD00
ENDCHAR
STARTCHAR guilsinglleft
ENCODING 8249
SWIDTH 257 0
DWIDTH 4 0
BBX 4 5 0 3
BITMAP
09
28
60
28
09
ENDCHAR
STARTCHAR guilsinglright
ENCODING 8250
SWIDTH 257 0
DWIDTH 4 0
BBX 3 5 1 3
BITMAP
80
60
28
60
80
ENDCHAR
STARTCHAR fraction
ENCODING 8260
SWIDTH 200 0
DWIDTH 3 0
BBX 9 11 -3 0
BITMAP
000080
000240
000900
001800
006000
009000
024000
060000
180000
300000
900000
ENDCHAR
STARTCHAR Euro
ENCODING 8364
SWIDTH 833 0
DWIDTH 13 0
BBX 12 11 0 0
BITMAP
002FF9
01E406
034000
090000
7FFFD0
0C0000
7FFF80
090000
070000
01D406
002FF9
ENDCHAR
STARTCHAR trademark
ENCODING 8482
SWIDTH 773 0
DWIDTH 12 0
BBX 11 5 0 6
BITMAP
BF7018
082828
082458
082288
082248
ENDCHAR
STARTCHAR partialdiff
ENCODING 8706
SWIDTH 790 0
DWIDTH 13 0
BBX 11 11 1 0
BITMAP
01BE40
0641A0
000034
000018
06FE18
3901E8
900024
C00030
D000A0
740680
1BF900
ENDCHAR
STARTCHAR minus
ENCODING 8722
SWIDTH 634 0
DWIDTH 10 0
BBX 8 1 1 5
BITMAP
BFFE
ENDCHAR
STARTCHAR uni2215
ENCODING 8725
SWIDTH 200 0
DWIDTH 3 0
BBX 9 11 -3 0
BITMAP
000080
000240
000900
001800
006000
009000
024000
060000
180000
300000
900000
ENDCHAR
STARTCHAR approxequal
ENCODING 8776
SWIDTH 634 0
DWIDTH 10 0
BBX 8 5 1 3
BITMAP
7E42
81BD
0000
7E42
81BD
ENDCHAR
STARTCHAR notequal
ENCODING 8800
SWIDTH 634 0
DWIDTH 10 0
BBX 8 8 1 1
BITMAP
0060
0090
BFFE
0180
0240
BFFE
0600
0900
ENDCHAR
STARTCHAR lessequal
ENCODING 8804
SWIDTH 634 0
DWIDTH 10 0
BBX 8 9 1 1
BITMAP
0006
01B8
2E40
B000
2E40
01B8
0006
0000
BFFE
ENDCHAR
STARTCHAR greaterequal
ENCODING 8805
SWIDTH 634 0
DWIDTH 10 0
BBX 8 9 1 1
BITMAP
A000
1E40
01B9
000B
01B9
1E40
A000
0000
BFFE
ENDCHAR
STARTCHAR fi
ENCODING 64257
SWIDTH 1104 0
DWIDTH 18 0
BBX 15 11 1 0
BITMAP
06FFFC0C
1D00000C
3000000C
6000000C
6000000C
7FFFFC0C
6000000C
6000000C
6000000C
6000000C
6000000C
ENDCHAR
STARTCHAR fl
ENCODING 64258
SWIDTH 1527 0
DWIDTH 24 0
BBX 24 11 1 0
BITMAP
06FFFC0C0000
1D00000C0000
3000000C0000
6000000C0000
6000000C0000
7FFFFC0C0000
6000000C0000
6000000C0000
6000000C0000
6000000A4000
60000002FFFD
ENDCHAR
STARTCHAR .notdef
ENCODING -1
SWIDTH 1000 0
DWIDTH 16 0
BBX 1 1 0 0
BITMAP
00
ENDCHAR
ENDFONT
